<?xml version="1.0" encoding="UTF-8"?>
<!DOCTYPE svg PUBLIC "-//W3C//DTD SVG 1.1//EN" "http://www.w3.org/Graphics/SVG/1.1/DTD/svg11.dtd">
<!-- Creator: CorelDRAW 2021 (64-Bit Evaluation Version) -->
<svg xmlns="http://www.w3.org/2000/svg" xml:space="preserve" width="6.7in" height="1.23in" version="1.1" style="shape-rendering:geometricPrecision; text-rendering:geometricPrecision; image-rendering:optimizeQuality; fill-rule:evenodd; clip-rule:evenodd"
viewBox="0 0 6700 1230"
 xmlns:xlink="http://www.w3.org/1999/xlink"
 xmlns:xodm="http://www.corel.com/coreldraw/odm/2003">
 <defs>
  <style type="text/css">
   <![CDATA[
    .fil1 {fill:gold}
    .fil0 {fill:white}
   ]]>
  </style>
 </defs>
 <g id="Layer_x0020_1">
  <metadata id="CorelCorpID_0Corel-Layer"/>
  <path class="fil0" d="M4992.93 1091.33c39.8,31.63 87.99,47.5 138.75,45.98 26.31,-0.81 52.56,-6.18 77.23,-15.36 14.39,-5.34 28.74,-11.43 41.43,-20.13 42.8,-29.36 65.89,-79.78 78.33,-128.61 9.68,-37.96 14.02,-77.64 15.28,-116.73 64.57,9.6 128.66,21.07 192.38,35.26 134.44,29.96 267.15,70.79 393.7,125.35 31.85,13.74 63.59,28.27 94.45,44.13 20.44,10.5 40.48,21.82 61.22,31.72 53.17,25.39 108.99,46.24 166.74,58.38 93.55,19.71 195.91,15.09 275.93,-42.32 59.97,-43.01 97.91,-111.44 102.73,-185.06 4.48,-68.35 -20.64,-138.19 -76.33,-180.29 -57.64,-43.56 -132.01,-47.14 -200.2,-31.06 -15.28,3.59 -30.42,7.85 -45.2,13.15 -4.42,1.59 -8.09,4.76 -11.99,7.36 -30.54,20.16 -51.07,51.94 -51.07,89.16 0,32.1 16.06,65.36 43.89,82.32 20.37,12.43 45.59,14.33 67.11,3.43 1.7,-0.85 2.99,-2.31 4.48,-3.51 10.09,-8 19.48,-18.35 22.19,-31.31 2.48,-11.79 -0.91,-22.84 -8.76,-31.82 -1.33,-1.52 -2.85,-2.91 -4,-4.6 -0.36,-0.51 11.27,-0.91 12.32,-0.85 32.57,0.97 67.81,19.72 81.65,50.11 12.15,26.73 7.27,57.54 -2.17,84.3 -1.87,5.29 -3.8,10.58 -6.26,15.61 -1.24,2.54 -3.15,4.71 -4.81,7.01 -13.37,18.61 -29.03,35.56 -48.33,48.12 -51.69,33.67 -116.89,26.38 -173.56,11.28 -31.98,-8.52 -63.19,-20.1 -93.62,-33.07 -30.69,-13.06 -60.83,-27.62 -90.36,-43.1 -5.8,-3.06 -11.48,-6.29 -17.26,-9.37 -98.52,-52.56 -203.45,-93.71 -309.75,-127.54 -104.28,-33.15 -210.87,-59.27 -318.44,-79.16 -18.66,-3.47 -37.35,-6.76 -56.08,-9.79 0,-129.65 -0.01,-242.27 0,-371.91 0,-8.9 0.19,-18.37 2.18,-27.08 0.77,-3.35 0.61,-3.73 3.72,-4.86 3.76,-1.34 7.91,-2.04 11.86,-2.45 10.77,-1.09 41.97,0.31 47.03,0.96 3.54,0.44 11.43,1.63 13.15,5.53 0.89,1.99 1.44,4.23 1.9,6.35 1.96,9.29 2.25,19.15 2.25,28.63 0,69.55 0,139.14 0,208.69 0,10.3 -0.17,21.55 -2.72,31.56 -1.05,4.09 -0.95,4.63 -4.91,5.68 -1.74,0.44 -3.56,0.74 -5.33,0.89l-24.53 1.99 0 68.35c176.61,0 353.23,0 529.85,0l0 -66.47c-7.55,-1.25 -15.12,-2.49 -22.67,-3.76 -5.3,-0.89 -13.2,-2.64 -15.37,-8.35 -1.64,-4.32 -2.96,-9.17 -3.02,-13.76l-1.75 -193.8c-0.24,-27.9 -1.76,-57.17 -10.01,-83.99 -26.52,-86.15 -136.4,-87.68 -205.92,-55.78 -17.61,8.06 -33.5,18.74 -48.44,31.01 -4.63,-16.26 -11.65,-30.22 -19.22,-45.12l-206.01 13.59c-100.66,8.48 -239.93,-20.87 -297.46,-19.61 -50.5,0.02 -103.47,5.95 -149.84,27.15 -25.57,11.7 -48.69,28.17 -66.8,49.79 -34.1,40.63 -45.91,93.94 -44.85,145.96 0.83,41.11 12.54,80.37 35.12,114.78 12.65,19.3 28.33,36.96 46.15,51.62 35.37,29.13 78.42,45.24 123.88,49.01 27.82,2.33 55.89,3.19 83.8,4.04 0.89,0.02 12.24,0.27 12.25,0.42l2.94 31.59c-116.36,-12.53 -232.92,-22.06 -350.01,-23.06 -67.34,-0.58 -134.7,1.55 -201.82,6.97 -102.23,8.29 -203.71,24.3 -303.4,48.48 -10.16,2.45 -20.19,5.52 -30.42,7.65 -20.9,4.35 -41.91,8.13 -62.94,11.81 -150.49,26.3 -304.27,39.81 -457.07,33.45 -105,-4.4 -211.09,-18.16 -312.06,-48.07 -56.14,-16.64 -111.5,-38.55 -161.8,-68.78 -63.78,-38.31 -125.11,-94.46 -142.54,-169.66 -2.06,-8.91 -3.43,-17.28 -3.94,-26.38 4.13,-2.05 8.35,-3.94 12.38,-6.18 59.37,-32.76 95.89,-90.55 108.4,-156.32 10.77,-56.6 3.88,-118.19 -20.59,-170.48 -12.91,-27.58 -31.09,-52.16 -53.41,-72.86 -44.24,-41.1 -103.96,-61.74 -163.09,-68.74 -69.67,-8.25 -140.29,1.41 -207.47,20.33 -6.47,1.84 -12.54,3.91 -19.18,5.03 -29.98,4.98 -58.46,14.16 -86.98,24.43 -30.93,11.13 -61.61,22.5 -93.28,31.5 -5.35,1.5 -10.72,2.95 -16.09,4.35 -5.79,1.52 -9.68,2.1 -15.61,1.87 -1.26,-0.03 -10.9,-0.67 -10.9,-2.46 0.03,-6.35 3.73,-13.68 6.78,-19.05 1.65,-2.92 3.83,-5.6 5.33,-8.55 0.75,-1.48 1.09,-3.16 1.61,-4.74 6.58,-20.19 0.11,-40.91 -19.95,-50.14 -5.94,-2.75 -12.43,-4.12 -18.91,-4.7 -8.59,-0.74 -17.13,0.56 -25.59,2.13 -32.37,6.03 -65.28,23.33 -80.1,54.11 -13.33,27.66 -7.38,58.2 14.05,79.86 5.51,5.56 11.79,10.34 18.5,14.37 4.95,2.96 10.18,5.16 15.21,7.9 24.08,13.22 50.59,16.38 77.64,15.96 9.13,-0.15 18.22,-0.66 27.32,-1.22 1.91,-0.12 5.9,1.09 6.89,3.14 1.54,3.15 2.21,7.13 2.77,10.54 1.8,11.01 2.07,22.43 2.07,33.56 0.01,137.19 0.01,274.41 0,411.58 0,8.44 0.13,17.2 -0.9,25.59 -0.18,1.49 -0.24,2.41 -0.98,3.63 -2.35,3.91 -1.93,5.05 -6.22,5.92 -2.34,0.44 -4.82,0.54 -7.2,0.43l-27.78 -1.47 0 100.76 346.59 -0.07 0 -95.81c-7.37,-1.39 -14.75,-2.77 -22.13,-4.16 -5.33,-1.02 -12.74,-3.02 -15.71,-8.08 -1.05,-1.79 -2.14,-3.57 -3.2,-5.35 -1.57,-2.65 -1.7,-5.51 -1.95,-8.56 -0.62,-7.23 -0.66,-14.54 -0.66,-21.76l0 -84.3 21.4 -5.29c1.79,9.63 3.03,19.37 5.37,28.89 19.22,77.87 70.49,145.2 128.86,198.49 62.15,56.75 135.73,101.29 212.26,135.79 139.65,62.98 293.75,94.85 446.5,100.41 139.76,5.06 280.15,-11.87 415.04,-48.63 21.22,-5.77 42.52,-11.33 63.24,-18.68 11.91,-4.26 22.87,-10.82 34.39,-16.06 123.31,-55.8 253.68,-94.04 387.46,-114.31 196.04,-29.68 395.39,-20.44 590.85,9.03 1.84,22.78 1.35,45.96 -4.43,68.18 -5.98,22.98 -19.94,50.22 -46.13,53.76 -25.6,3.47 -49.41,-15.06 -66.84,-31.41 -40.24,-37.63 -82.22,-76.36 -135.64,-93.89 -31.32,-10.28 -64.1,-12.36 -96.83,-10.5 -3.61,0.22 -7.26,0.08 -10.81,0.73 -53,9.52 -101.77,33.25 -141.43,71.82 -31.55,30.72 -49.02,85.43 -42.41,135.51 10.42,79.11 57.76,143.39 134.47,161.76 90.7,21.67 156.57,-24.73 191.53,-46.41 47.22,-29.31 2.87,-93.19 -41.57,-66.09 -30.58,19.7 -183.94,-20.41 -122.54,-130.56 6.84,-12.25 22.95,-20.35 36.41,-24.21 28.72,-8.28 56.5,6.47 78.07,24.61 19.84,16.63 36.59,37.23 51.35,58.43 8.68,12.45 16.43,25.47 25.6,37.58 12.44,16.48 29.17,34.09 45.35,46.95zm894.12 -608.11c0,40.17 8.01,80.14 27.8,115.44 28.63,51.06 77.83,85.54 133.38,101.89 25.43,7.47 51.85,11.32 78.29,12.6 64.45,3.17 132.35,-6.73 187.11,-42.93 39.5,-26.13 68.97,-63.56 83.7,-108.68 5.6,-17.19 9,-35.05 10.59,-53.05 5.3,-60.32 -7.4,-121.79 -46.44,-169.32 -11.2,-13.61 -24.17,-25.75 -38.35,-36.22 -56.29,-41.55 -128.13,-53.05 -196.61,-49.7 -42.76,2.1 -85.59,10.92 -123.8,30.8 -49.3,25.68 -86.85,67.76 -104.06,120.85 -8.19,25.25 -11.61,51.8 -11.61,78.31zm255.79 -119.54c12.26,0.06 21.28,5.28 28.85,14.78 9.76,12.24 15.52,28.36 19.34,43.38 6.02,23.65 8.01,48.54 8.44,72.88 0.37,20.94 -0.47,42.25 -5.85,62.6 -4.66,17.58 -15.26,43.15 -36.3,45.26 -13.06,1.29 -24.36,-3.47 -32.9,-13.29 -10.55,-12.14 -16.45,-28.98 -20.26,-44.35 -5.68,-22.9 -7.65,-46.91 -8.25,-70.44 -0.58,-22.81 -0.06,-46.07 6.53,-68.09 5.36,-17.86 16.74,-41.28 38.03,-42.64 0.79,-0.04 1.59,-0.08 2.38,-0.08zm-1016.78 0.03c0,69.85 0,139.69 0,209.54 0,5.41 -0.31,12.67 -3.15,17.51 -2.13,3.61 -6.87,4.43 -10.72,4.85 -14.13,1.55 -26.73,-2.63 -36.42,-13.13 -13.45,-14.58 -19.78,-36.01 -22.8,-55.15 -2.25,-14.13 -2.95,-28.54 -2.77,-42.82 0.44,-35.22 6.83,-77.63 33.1,-103.58 11.26,-11.12 25.55,-17.01 41.39,-17.22l1.37 -0.01zm-1917.93 119.52c0,40.17 8.01,80.14 27.8,115.44 28.63,51.06 77.83,85.54 133.38,101.89 25.43,7.47 51.85,11.32 78.29,12.6 64.45,3.17 132.35,-6.73 187.11,-42.93 39.5,-26.11 68.98,-63.57 83.7,-108.68 5.6,-17.19 9.02,-35.05 10.59,-53.05 5.3,-60.29 -7.4,-121.79 -46.44,-169.32 -11.2,-13.61 -24.17,-25.75 -38.35,-36.22 -56.29,-41.55 -128.13,-53.05 -196.61,-49.7 -42.76,2.1 -85.59,10.92 -123.8,30.8 -49.3,25.68 -86.85,67.76 -104.06,120.85 -8.19,25.25 -11.61,51.8 -11.61,78.31zm255.79 -119.54c12.26,0.06 21.28,5.28 28.83,14.78 9.77,12.24 15.54,28.36 19.36,43.38 6.02,23.68 8.01,48.53 8.44,72.88 0.37,20.94 -0.47,42.25 -5.85,62.6 -4.66,17.58 -15.28,43.15 -36.3,45.26 -12.33,1.21 -23.37,-3 -31.76,-12.04 -10.61,-11.41 -16.67,-27.72 -20.59,-42.52 -6.73,-25.31 -8.71,-52.16 -9.14,-78.25 -0.46,-27.38 1,-57.67 14.33,-82.27 3.69,-6.83 8.5,-13.62 14.83,-18.23 5.31,-3.85 11.33,-5.61 17.86,-5.6zm341.02 154.24c20.66,12.61 43.43,21.09 66.72,27.43 10.2,2.76 20.43,5.52 30.72,8.02 18.54,4.52 37.65,8.52 54.65,17.54 4.48,2.37 10.41,5.8 13.27,10.18 0.35,0.54 0.71,1.19 0.75,1.82 0.65,11.54 -13.73,17.47 -22.72,20.18 -5.88,1.78 -11.98,2.84 -18.09,3.47 -33.83,3.42 -69.83,-3.63 -94.53,-28.39 -14.28,-14.3 -23.27,-32.6 -28.65,-51.93 -0.77,-2.76 -1.44,-5.55 -2.13,-8.32zm300.64 -92.82l24.91 0 -14.97 -181.26c-12.73,5.2 -25.39,10.62 -38.24,15.51 -7.87,2.97 -16.91,6.54 -25.51,5.75 -13.17,-1.21 -26.3,-3.93 -39.33,-6.15 -22.44,-3.88 -45.01,-6.49 -67.81,-6.17 -52.91,0.74 -106.13,12.71 -148.19,46.36 -12.14,9.73 -22.96,21.08 -31.55,34.08 -27.28,41.28 -29.83,100.69 -3.28,143.04 5.83,9.29 12.91,17.57 20.98,24.97l-50.13 0 16.18 214.24c12.87,-4.29 25.71,-8.71 38.66,-12.81 6.44,-2.05 13.3,-4.19 20,-5.16 0.77,-0.11 2.25,0.32 3.04,0.46 16,2.83 31.81,6.64 47.8,9.52 40.85,7.36 82.09,8.01 123.34,2.88 56.28,-7 114.72,-27.42 150.48,-73.86 25,-32.48 34.48,-74.29 30.81,-114.74 -1.25,-13.91 -4.35,-27.63 -9.7,-40.56 -9.72,-23.43 -26.37,-42.25 -47.49,-56.1zm-51.22 -23.76c-25.32,-8.21 -51.2,-14.9 -76.82,-22.28 -11.75,-3.37 -23.7,-6.68 -34.26,-13.06 -0.5,-0.33 -5.88,-3.8 -5.44,-4.23 6.37,-6.34 16.89,-8.48 25.47,-8.95 23.51,-1.3 46.53,5.68 65.27,19.94 10.28,7.82 18.94,17.65 25.78,28.57zm187.06 116.58c20.66,12.61 43.44,21.09 66.72,27.43 10.2,2.76 20.45,5.52 30.72,8.02 18.54,4.52 37.65,8.52 54.65,17.54 4.5,2.37 10.42,5.8 13.29,10.18 0.35,0.54 0.71,1.19 0.74,1.82 0.65,11.54 -13.73,17.47 -22.71,20.18 -5.88,1.78 -11.99,2.84 -18.1,3.47 -33.81,3.42 -69.82,-3.63 -94.52,-28.39 -14.28,-14.3 -23.28,-32.59 -28.65,-51.93 -0.77,-2.76 -1.44,-5.55 -2.14,-8.32zm300.64 -92.82l24.93 0 -14.98 -181.26c-12.72,5.2 -25.39,10.62 -38.23,15.51 -7.87,2.97 -16.91,6.54 -25.51,5.75 -12.37,-1.15 -24.78,-3.59 -37,-5.75 -23.18,-4.12 -46.57,-6.89 -70.15,-6.57 -52.9,0.74 -106.14,12.71 -148.17,46.36 -12.14,9.73 -22.96,21.08 -31.55,34.08 -27.29,41.28 -29.84,100.69 -3.29,143.04 5.81,9.29 12.91,17.57 20.99,24.97l-50.13 0 16.18 214.24c15.07,-5.02 30.34,-10.58 45.71,-14.95 3.93,-1.09 7.97,-2.15 11.98,-2.85 1.71,-0.31 3.23,0.16 4.94,0.47 19.04,3.43 37.84,8.07 56.95,11.02 37.47,5.83 75.62,5.87 113.26,1.2 56.28,-7 114.72,-27.42 150.46,-73.86 25,-32.48 34.5,-74.29 30.83,-114.74 -1.27,-13.91 -4.35,-27.63 -9.71,-40.56 -9.72,-23.43 -26.38,-42.25 -47.5,-56.1zm-51.2 -23.76c-23.96,-7.75 -48.58,-13.51 -72.62,-21.01 -8.76,-2.73 -17.42,-4.85 -26.03,-8.29 -6.04,-2.44 -13,-5.5 -17.82,-10.01 -0.32,-0.31 1.19,-1.36 1.5,-1.6 6.81,-5.26 15.49,-7.13 23.93,-7.59 36.04,-2 68.46,15.2 88.63,44.82 0.82,1.2 1.64,2.45 2.42,3.69zm1158.77 232.74c-2.26,0.03 -4.41,-0.95 -6.62,-1.45 -6.53,-1.43 -14.59,-4.19 -17.04,-11.09 -1.61,-4.5 -2.41,-9.45 -3.04,-14.17 -1.78,-13.08 -2.09,-26.45 -2.09,-39.63 0,-23.72 -0.02,-47.44 0,-71.15 0,-23.78 1.63,-49.5 9.87,-72.03 5.09,-13.88 13.68,-29.05 29.41,-32.12 3.72,-0.72 10.57,-1.51 14.26,0.41 2.41,1.25 3.58,6.57 4.13,8.81 2.77,11.24 3.09,23.53 3.09,35.04 0,49.37 0,98.72 0,148.08 0,11.06 -0.32,23.14 -3.28,33.88 -0.51,1.83 -1.12,3.69 -1.98,5.39 -2.8,5.48 -11.27,7.51 -16.72,8.41 -3.33,0.56 -6.62,1.6 -9.99,1.63zm733.47 1.13l0 67.48 275.27 0 0 -65.26c-7.07,-1.57 -14.15,-3.18 -21.21,-4.75 -6.19,-1.4 -14.32,-4 -16.49,-10.67 -1.57,-4.87 -2.31,-10.17 -2.91,-15.25 -1.52,-12.89 -1.8,-26.03 -1.8,-39.02l0 -513.19c-18.6,10.47 -36.65,21.56 -56.09,30.33 -26.74,12.07 -54.5,22.71 -82.47,31.51 -6.19,1.95 -12.43,3.8 -18.7,5.5 -17.83,4.81 -36.43,9.01 -54.96,5.96 -0.56,-0.09 -4.87,-0.85 -5.05,-1.19 -0.42,-0.8 3.73,-9 4.28,-9.99 0.85,-1.55 1.75,-3.08 2.69,-4.56 3.5,-5.54 5.44,-9.93 6.58,-16.33 2.37,-13.11 -1.35,-26.14 -11.66,-34.94 -15.52,-13.26 -37.66,-11 -55.99,-6.47 -27.74,6.81 -54.85,23.94 -65.12,51.76 -10.59,28.7 1.19,57.33 25.44,74.61 3.86,2.74 7.94,5.13 12.15,7.28 4.29,2.19 8.76,4.54 13.15,6.56 27.69,12.76 57.7,11.09 87.31,9.29 0.36,-0.02 0.58,-0.23 0.65,0.16 2.25,12.92 2.37,26.56 2.42,39.63 0.5,116.84 0.01,233.73 0,350.57 0,8.41 -0.22,16.91 -1.33,25.22 -0.26,1.95 -1,9.27 -2.83,10.31 -2.8,1.57 -6.6,2.27 -9.75,2.64l-23.58 2.83zm-3549.68 -262.93c0,-37.94 0,-75.87 0,-113.81 0,-6.35 0.21,-13.41 2.11,-19.54 0.24,-0.8 10.56,-1.97 11.89,-2.13 13.37,-1.61 26.92,-2.35 40.38,-2.61 14.04,-0.28 30.31,-0.12 43.37,5.8 8.13,3.66 12.28,9.33 14.5,17.9 1.94,7.52 2.17,15.85 1.59,23.56 -1.66,21.95 -12.07,40.73 -28.26,55.42 -7.09,6.43 -16.27,11.06 -24.94,15 -19.38,8.79 -40.1,14.97 -60.64,20.42zm1964.33 -110.21c27.37,-29.69 31.15,-75.15 9.81,-109.27 -7.3,-11.69 -17.32,-22.04 -28.48,-30.04 -35.81,-25.76 -86.74,-25.35 -122.06,1.13 -15.6,11.68 -28.1,27.61 -34.48,46.1 -10.65,30.93 -4.48,65.17 16.69,90.12 6.8,8.04 14.67,14.8 23.53,20.46l-75.38 10.34 0 64.52c7.62,1.08 15.25,2.14 22.87,3.2 1.08,0.16 4.69,0.62 4.98,1.78 0.74,2.79 1.16,5.69 1.51,8.55 1.52,12.32 1.67,24.97 1.67,37.35 0,62.63 0,125.29 0,187.91 0,10.13 -0.15,21.15 -2.58,31.05 -0.28,1.13 -0.63,3.42 -1.66,4.12 -2.67,1.87 -6.94,2.64 -10.08,3l-23.56 2.83 0 67.48 275.66 0 0 -65.3c-7.11,-1.59 -14.21,-3.15 -21.31,-4.73 -6.88,-1.53 -14.63,-4.31 -17.02,-11.56 -1.05,-3.22 -1.71,-6.57 -2.26,-9.88 -2.31,-14.26 -2.61,-29.09 -2.61,-43.49l0 -307.73 -15.24 2.07z"/>
  <path class="fil1" d="M2807.89 404.7c45.01,-9.93 103.75,-26.33 128.28,-48.91 24.54,-22.59 36.88,-49.67 36.88,-81.13 0,-22.87 -6.28,-39.63 -18.96,-50.27 -12.6,-10.58 -32.51,-15.8 -59.6,-15.8 -24.08,0 -64.46,2.7 -73.35,8.13 -8.87,5.41 -13.24,19.41 -13.24,41.69l0 146.3zm3638.25 -158.24c0,-31.78 -2.2,-51.46 -6.59,-59.21 -3.93,-6.92 -10.85,-7.98 -20.77,-9.72 -0.01,0.22 -0.02,0.44 -0.04,0.69 -29.41,1.76 -59.89,4.55 -85.06,-10.66 -56.71,-23.87 -35.82,-85.88 35.8,-91.34 15.43,0.5 20.89,6.97 16.42,19.4 -20.94,31.72 -21.27,58.51 30.79,58.72 42.93,2.13 153,-43.87 173.73,-56.07l0 469.49c0,35.82 2.98,58.98 9.06,69.32 6.07,10.34 17.19,17.33 33.35,20.8l0 19.28 -224.2 0 0 -19.28c13.84,-1.55 23.69,-6.04 29.22,-13.56 5.58,-7.62 8.28,-24.32 8.28,-50.05l0 -347.8zm-3847.02 412.22c0,37.67 -2.61,36.95 -7.81,46.14 -7.61,13.42 -23.28,15.56 -35.3,14.86l0 48.3 295.53 -0.07 0 -49.09c-16.7,-3 -28.17,-9.76 -34.31,-20.46 -6.21,-10.81 -9.34,-10.97 -9.34,-48.59l0 -104.35 70.25 -17.38c0.89,291.61 587.46,612.79 1238.87,404.39 351.54,-169.01 700.75,-173.5 1044.99,-119.69 22,152.06 -69.25,218.52 -158.08,131.52 -82.98,-79.19 -128.55,-104.07 -222.24,-96.98 -322.85,55.74 -124.35,475.63 129.56,275.7 11.37,-12.3 -0.46,-34.12 -17.58,-25.25 -136.07,44.97 -223.16,-96.73 -150.26,-172.94 21.47,-22.45 103.28,-81.5 209.41,82.06 78.61,126.41 194.33,115.37 260.08,85.91 48.18,-17.89 105.74,-81.15 106.12,-265.59 271.09,36.39 520.41,111.82 717.05,211.26 665.3,371.51 732.32,-444.76 283.73,-289.12 -92.54,51.97 -32.48,162.75 24.74,136.29 14.37,-11.06 18.21,-20.19 11.48,-27.41 -81.15,-82.76 217.59,-71.46 123.42,139.88 -69.99,106.43 -180.49,138.94 -445.26,0.7 -182.97,-101.21 -439.55,-183.59 -715.17,-226.66l0 -393.65c0,-24.19 3.02,-39.95 8.93,-46.96 5.98,-7.08 16.94,-11.35 33.1,-12.92l0 -19.25c-93.98,6.26 -182.75,-14.8 -271.83,-17.15 -78.86,0 -137.82,16.04 -177.13,48.09 -39.3,32.07 -58.97,80.17 -58.97,144.3 0,47.97 15.65,90.39 46.94,126.96 31.3,36.6 71.26,58.65 119.73,66.33 19.92,3.16 81.72,5.22 109.39,5.94 19.71,1.52 21.95,7.27 24.44,16.34l6.5 69.73c-279.55,-31.74 -577.1,-50.22 -908.52,36.17 -689.28,137.92 -1172.74,-43.63 -1172.31,-309.2 150.74,-54.72 157.68,-263.37 69.26,-356.73 -66.72,-76.7 -207.78,-104.01 -375.24,-51.67l0 -0.11c0,0.02 -0.02,0.08 -0.03,0.13 -68.17,9.72 -114.8,39.6 -209.08,62.97 -55.67,5.21 -60.29,-28.43 -35.32,-66.27 5.36,-14.85 -1.19,-22.57 -19.61,-23.18 -85.59,6.56 -110.56,80.63 -42.8,109.15 29.72,17.97 65.62,14.91 100.36,12.83 10.16,2.7 17.71,7.32 22.52,13.85 6.61,8.99 9.8,28.77 9.8,59.21l0 411.66zm2815.56 18.46l0 -19.28c14.09,-1.01 23.89,-5.71 29.34,-14.2 5.41,-8.44 8.16,-24.97 8.16,-49.4l0 -208.8c0,-24.43 -2.94,-41.13 -8.92,-50.04 -5.93,-8.8 -16.56,-14.09 -31.94,-15.9l-0.37 -19.28 166.52 -10.98c4.66,9.05 8.33,19.37 11.26,31.03 2.91,11.61 5.03,24.82 6.59,39.45 23,-26.26 46.68,-45.51 70.98,-57.56 24.44,-12.13 51.72,-18.22 82.09,-18.22 37.89,0 64.43,9.42 79.53,28.19 15.15,18.86 22.75,53.65 22.75,104.48l0 160.57c0,30.77 2.97,51.34 9.06,61.54 6.07,10.23 17.32,16.56 33.73,19.13l0 19.28 -231.03 0 0 -19.28c16.68,-2.57 28.31,-8.9 34.9,-19.13 6.59,-10.2 9.83,-28.19 9.83,-53.91l0 -148.16c0,-25.99 -2.98,-44.22 -8.91,-54.7 -5.95,-10.47 -16.17,-15.78 -30.51,-15.78 -23.28,0 -41.12,11.13 -53.67,33.5 -12.53,22.35 -18.74,54.69 -18.74,96.82l0 71.23c0,34.52 3.07,57.44 9.3,68.42 6.18,10.86 17.59,18.23 34.27,21.7l0 19.28 -224.2 0zm-770.73 -270.85c0,-31.81 -2.19,-51.46 -6.59,-59.24 -4.39,-7.74 -12.53,-12.28 -24.43,-13.84l0 -20.03 174.54 -23.92 0 278.48c0,35.05 3.11,57.94 9.31,68.67 6.2,10.73 17.46,17.97 33.87,21.44l0 19.28 -224.57 0 0 -19.28c13.84,-1.55 23.67,-6.2 29.34,-13.94 5.7,-7.89 8.54,-24.43 8.54,-49.66l0 -187.98zm75.26 -276.95c20.68,0 38.66,7.11 53.79,21.46 15.11,14.23 22.75,30.91 22.75,50.15 0,19.15 -7.38,35.56 -22.12,49.28 -14.86,13.56 -32.96,20.43 -54.42,20.43 -21.47,0 -39.57,-6.88 -54.18,-20.43 -14.6,-13.72 -21.98,-30.13 -21.98,-49.28 0,-19.77 7.38,-36.57 22.11,-50.54 14.86,-14.09 32.83,-21.07 54.04,-21.07zm-511.06 551.54l-11.63 -154.09 20.81 0c8.28,34.11 24.06,60.24 47.07,78.61 23.14,18.22 52.23,27.39 87.26,27.39 24.82,0 44.48,-4.51 59.35,-13.44 14.74,-8.93 22.1,-20.93 22.1,-36.2 0,-22.61 -26.11,-40.09 -78.34,-52.22 -13.83,-3.24 -24.7,-6.09 -32.45,-8.3 -40.48,-10.08 -70.07,-24.41 -88.96,-43.04 -18.74,-18.5 -28.19,-42.41 -28.19,-71.74 0,-38.16 16.56,-69.32 49.78,-93.35 33.24,-24.19 77.06,-36.22 131.63,-36.22 16.68,0 36.72,2.09 60.25,6.2 23.53,4.28 38.27,6.34 44.34,6.34 4.52,0 9.82,-0.77 15.65,-2.31 5.94,-1.55 13.44,-4.13 22.61,-7.89l9.84 118.94 -20.04 0c-11.9,-23.02 -27.81,-40.85 -47.72,-53.4 -20.04,-12.67 -42.28,-19 -67.1,-19 -16.42,0 -29.87,3.5 -40.46,10.46 -10.61,6.85 -15.91,15.13 -15.91,24.82 0,15.92 17.46,28.98 52.5,39.45 4.66,1.16 8.14,2.2 10.61,2.96l64.38 18.48c34.13,9.97 59.09,24.07 74.99,42.55 15.91,18.36 23.92,42.27 23.92,71.49 0,47.97 -18.48,85.08 -55.47,111.35 -36.98,26.22 -89.73,39.41 -158.12,39.41 -23.27,0 -47.84,-2.71 -73.7,-8.15 -25.85,-5.44 -40.08,-8.13 -42.54,-8.13 -3.11,0 -7.63,0.75 -13.83,2.33 -6.2,1.41 -13.7,3.74 -22.63,6.7zm-436.48 0l-11.64 -154.09 20.82 0c8.26,34.11 24.04,60.24 47.06,78.61 23.14,18.22 52.24,27.39 87.28,27.39 24.82,0 44.47,-4.51 59.33,-13.44 14.74,-8.93 22.11,-20.93 22.11,-36.2 0,-22.61 -26.11,-40.09 -78.35,-52.22 -13.83,-3.24 -24.7,-6.09 -32.45,-8.3 -40.46,-10.08 -70.07,-24.41 -88.94,-43.04 -18.75,-18.5 -28.19,-42.41 -28.19,-71.74 0,-38.16 16.54,-69.32 49.78,-93.35 33.22,-24.19 77.05,-36.22 131.61,-36.22 16.68,0 36.72,2.09 60.25,6.2 23.53,4.28 38.27,6.34 44.35,6.34 4.52,0 9.83,-0.77 15.64,-2.31 5.95,-1.55 13.44,-4.13 22.63,-7.89l9.83 118.94 -20.04 0c-11.9,-23.02 -27.8,-40.85 -47.7,-53.4 -20.04,-12.67 -42.28,-19 -67.1,-19 -16.42,0 -29.87,3.5 -40.48,10.46 -10.61,6.85 -15.9,15.13 -15.9,24.82 0,15.92 17.44,28.98 52.48,39.45 4.66,1.16 8.16,2.2 10.61,2.96l64.38 18.48c34.13,9.97 59.09,24.07 75,42.55 15.9,18.36 23.91,42.27 23.91,71.49 0,47.97 -18.48,85.08 -55.46,111.35 -36.98,26.22 -89.73,39.41 -158.12,39.41 -23.28,0 -47.84,-2.71 -73.7,-8.15 -25.86,-5.44 -40.09,-8.13 -42.55,-8.13 -3.1,0 -7.62,0.75 -13.83,2.33 -6.22,1.41 -13.72,3.74 -22.63,6.7zm-307.72 -342.73c-21.85,0 -39.52,11.01 -52.75,32.96 -13.27,22.01 -19.91,51.57 -19.91,88.93 0,54.84 7.08,96.61 21.33,125.17 14.32,28.72 35.04,43.06 62.31,43.06 21.72,0 39.1,-11.11 51.98,-33.35 12.84,-22.22 19.26,-52.51 19.26,-90.91 0,-52.75 -7.22,-93.62 -21.59,-122.56 -14.32,-28.86 -34.53,-43.3 -60.64,-43.3zm-230.27 145.06c0,-63.1 20.92,-113.16 62.83,-149.85 42,-36.76 99.43,-55.09 172.48,-55.09 72.66,0 130.1,18.33 172.33,55.09 42.19,36.69 63.24,86.75 63.24,149.85 0,63.09 -21.08,113.11 -63.1,149.83 -42.02,36.74 -99.56,55.08 -172.47,55.08 -73.05,0 -130.48,-18.32 -172.48,-55.08 -41.92,-36.67 -62.83,-86.74 -62.83,-149.83zm1917.93 90.1l0 -233.62c-2.59,-0.26 -5.95,-0.5 -10.22,-0.8 -7.62,-0.48 -12.41,-0.75 -14.47,-0.75 -31.3,0 -56.11,13.44 -74.61,40.31 -18.48,26.9 -27.66,63.63 -27.66,110.06 0,41.36 7.4,73.93 21.98,97.47 14.63,23.65 34.78,35.44 60.25,35.44 15.13,0 26.41,-3.98 33.75,-11.91 7.4,-7.98 10.98,-20.04 10.98,-36.2zm991.25 -235.17c-21.85,0 -39.52,11.01 -52.75,32.96 -13.27,22.01 -19.91,51.57 -19.91,88.93 0,54.84 7.08,96.61 21.33,125.17 14.32,28.72 35.04,43.06 62.32,43.06 21.71,0 39.09,-11.11 51.97,-33.35 12.84,-22.22 19.26,-52.51 19.26,-90.91 0,-52.75 -7.22,-93.62 -21.59,-122.56 -14.32,-28.86 -34.53,-43.3 -60.64,-43.3zm-230.27 145.06c0,-63.1 20.92,-113.16 62.83,-149.85 42,-36.76 99.43,-55.09 172.48,-55.09 72.66,0 130.1,18.33 172.35,55.09 42.17,36.69 63.21,86.75 63.21,149.85 0,63.09 -21.07,113.11 -63.09,149.83 -42.02,36.74 -99.55,55.08 -172.47,55.08 -73.05,0 -130.48,-18.32 -172.48,-55.08 -41.92,-36.67 -62.83,-86.74 -62.83,-149.83z"/>
  <path class="fil0" d="M1340.72 735.95c-3.41,-7.37 -6.29,-14.94 -8.74,-22.69 -12.22,9.37 -24.89,17.96 -38.43,25.32 -29.36,15.94 -61.5,25.38 -94.76,28.35 -51.86,4.66 -113.33,-3.27 -145.1,-49.66 -12.56,-18.35 -19.31,-40.43 -23.3,-62.12 -4.03,-21.86 -5.44,-44.27 -5.65,-66.47 -0.68,-68.85 0.47,-137.72 -0.05,-206.57 -0.14,-19.28 3.18,-41.77 -20.63,-44.77l-27.54 -3.49 0 -76.9 275.07 -16.42c0,108.49 -0.02,216.94 0,325.42 0,11.44 0.46,23.41 3.08,34.63 3.52,15.1 9.63,16.64 24.05,13.33 22.5,-5.14 32.35,-31.76 37.14,-51.64 5.33,-22.08 6.72,-45.28 6.72,-67.92 0,-36.58 0,-73.13 0,-109.7 0,-11.92 -0.19,-25.24 -3.43,-36.81 -2.36,-8.38 -10.27,-9.44 -18.05,-10.52l-27.16 -3.81 0 -76.59 275.97 -16.37c0,127.79 0,255.61 0,383.41 0,20.41 -3.88,42.85 21.11,46.44 14.14,2 23.15,2.97 37.33,1.92 24.99,-1.85 19.11,-23.51 19.11,-44.65 0.02,-135.38 0.02,-270.73 0,-406.09 0,-9.69 -0.16,-19.39 -0.69,-29.07 -0.47,-8.19 1.6,-24.94 -8.21,-26.11l-27.35 -3.26 0 -81.35c21.17,1.12 42.29,2.75 63.49,2.27 53.45,-1.23 105,-14.03 156.63,-26.7l43.03 -10.57 0 194.91c36.97,0.06 74.41,0.93 111.09,5.96 49.03,6.73 95.8,23.38 135.07,54.09 28.98,22.65 52.04,51.5 68.94,84.12 41.81,80.69 40.43,181.93 -9.2,258.91 -25.92,40.17 -64.62,72.21 -109.2,89.62 -40.24,15.71 -83.47,18.65 -126.24,19.75l-550.44 1.06 0 46.14c-6.02,6.37 -11.98,12.81 -18.07,19.12 -52.54,54.61 -119.44,99.76 -196.32,108.41 -70.98,7.99 -137.96,-16.57 -195.89,-56.39 -12.83,-8.82 -24.65,-18.63 -37.04,-27.99 -46.83,-35.35 -105.93,-44.85 -162.17,-55.13 -14.11,-2.59 -28.23,-5.22 -42.27,-8.18 -17,-3.61 -33.84,-7.88 -50.74,-11.96l7.47 -93.1c8.51,-1.01 17,-2.01 25.51,-3.05 9.89,-1.17 12.34,-1.7 14.01,-10.91 2,-10.98 2.23,-22.52 2.23,-33.69 0,-135.41 0,-270.8 0,-406.21 0,-9.7 -0.16,-19.39 -0.71,-29.03 -0.46,-8.22 1.61,-24.99 -8.19,-26.15l-27.35 -3.24 0 -82.23c14.47,1.13 28.96,2.55 43.46,3.37 57.09,3.27 114.26,-6.62 168.66,-23.54 17.53,-5.44 34.94,-11.4 52.4,-17.11l-0.35 608.79c4.12,3.02 8.02,6.34 11.8,9.77 25.41,23.15 45.63,51.53 70.87,74.82 1.75,1.62 3.52,3.22 5.35,4.72 38.23,31.48 85,66.16 137.41,61.27 18.84,-1.78 37.02,-8.05 54.38,-15.33 31.07,-12.99 60.72,-29.31 91.41,-43.14l20.49 -9.26zm-671.32 -366.16l-82.83 14.15c-19.89,-37.79 -39.83,-76.26 -67.34,-109.26 -13.26,-15.9 -28.33,-30.11 -46.96,-39.49 -27.54,-13.85 -61.58,-15.43 -90.91,-6.79 -15.62,4.59 -29.8,12.48 -42.02,23.21 -49.82,43.69 -57.21,115.59 -50.54,177.66 1.9,17.64 5.24,35.15 10.31,52.16 18.37,61.58 63.39,123.02 127.43,141.47 26.45,7.63 56.52,8.48 83.47,2.5 10.96,-2.44 21.61,-6.12 31.64,-11.13 37.46,-18.73 63.11,-54.38 79.69,-91.87l11.98 -27.09 79.21 20.94 -89.2 255.12c-17.68,-5.54 -35.1,-12.06 -53.55,-14.33 -16.94,-2.07 -33.69,0 -50.54,2.06 -20.28,2.47 -40.43,5.74 -60.75,7.89 -48.91,5.16 -98.04,3.26 -146.25,-7.25 -27.36,-5.98 -54.1,-14.81 -79.43,-26.78 -86.37,-40.76 -152.82,-116.34 -182.61,-207.03 -10.94,-33.31 -17,-68.09 -19.14,-103.07 -5.07,-83.06 8.76,-171.85 62.85,-237.92 35.38,-43.24 83.8,-71.52 136.86,-87.57 72.02,-21.78 148.89,-22.11 223.29,-15.22 20.38,1.86 40.81,4.31 61.27,5.25 15.65,0.74 31.17,-3.71 45.87,-8.67 14.74,-4.94 29.27,-10.55 43.86,-15.88l64.31 306.94zm1185.05 0.61l-0.03 0 -0.08 0c0,67.01 0,134.03 0,201.07 0,15.41 0.3,31.87 3.76,46.99 1.82,8 2.74,10.83 11.41,12.7 14.36,3.11 30.57,1.29 42.89,-7.03 8.48,-5.76 15.24,-13.96 20.57,-22.61 20.06,-32.6 23.04,-75.42 21.04,-112.68 -2.15,-39.77 -12.59,-88.36 -51.34,-108.32 -15,-7.72 -31.53,-9.97 -48.22,-10.13z"/>
  <path class="fil1" d="M633.86 345.61l-30.96 5.3c-30.37,-58.17 -59.36,-98.95 -87.17,-122.36 -27.65,-23.4 -59.67,-35.2 -95.91,-35.2 -48.64,0 -88.06,18.13 -117.98,54.22 -29.91,36.12 -44.86,83.85 -44.86,143.21 0,76.43 20.55,140.31 61.78,191.53 41.08,51.2 92.59,76.74 154.52,76.74 40.48,0 75.37,-10.72 104.83,-32.19 29.46,-21.28 53.63,-53.47 72.2,-96.21l23.42 6.2 -69.02 197.42c-8.62,-2.72 -17.22,-4.67 -25.68,-6.06 -8.62,-1.33 -16.76,-1.96 -24.78,-1.96 -11.78,0 -33.69,2.26 -65.55,6.81 -31.87,4.67 -57.71,6.95 -77.8,6.95 -104.67,0 -189.42,-32.17 -254.07,-96.54 -64.5,-64.32 -96.82,-147.87 -96.82,-250.87 0,-94.1 26.74,-165.11 80.06,-212.85 53.46,-47.87 132.47,-71.72 237.14,-71.72 23.57,0 51.2,1.51 82.93,4.67 31.73,3.16 51.66,4.67 59.52,4.67 8.3,0 17.52,-1.18 27.65,-3.62 10.27,-2.26 22.05,-6.02 35.65,-11.02l50.91 242.89zm117.05 -123.42c0,-37.13 -2.56,-60.1 -7.69,-69.16 -5.14,-9.06 -14.66,-14.2 -28.56,-15.71 0,-7.8 0,-15.6 0,-23.4 63.28,5.52 131.56,-3.96 204.83,-28.42l-0.33 584.7c25.79,9.22 64.9,66.68 98.69,95.08 142.15,119.37 197.89,58.7 326.66,1.7 0,7.52 0,15 0,22.5 -101.89,110.79 -235.09,164.98 -392.83,36.41 -70.78,-57.67 -158.41,-57.27 -248.04,-79.68l3.48 -43.37c16.17,-1.81 27.65,-7.07 34.14,-15.83 6.49,-8.92 9.65,-28.4 9.65,-58.45l0 -406.35zm303.62 360.72l0 -198.31c0,-29.3 -3.48,-48.78 -10.57,-58.93 -7.11,-9.96 -19.64,-16.01 -37.62,-18.12l0 -22.52 215.4 -12.83 0 293.79c0,27.81 3.63,47.9 11.04,60.28 7.39,12.37 19.17,18.57 35.49,18.57 27.49,0 48.34,-12.81 62.69,-38.51 14.34,-25.68 21.45,-63 21.45,-111.94l0 -109.8c0,-29 -3.48,-48.5 -10.58,-58.47 -7.09,-9.97 -19.78,-16.17 -38.06,-18.57l0 -22.52 216.31 -12.83 0 351.79c0,29.01 3.48,48.21 10.57,58.01 7.11,9.69 19.64,15.71 37.62,18.15l0 25.21 -199.55 0c-4.98,-10.27 -8.76,-21.29 -11.48,-32.79 -2.56,-11.46 -4.23,-24.3 -4.83,-38.51 -27.19,29 -55.13,50.17 -83.83,63.75 -28.85,13.6 -60.28,20.4 -94.56,20.4 -43.65,0 -74.46,-11.2 -92.44,-33.39 -17.99,-22.35 -27.05,-62.98 -27.05,-121.91zm769.98 -11.4c0,38.09 4.23,62.68 12.83,74.04 8.62,11.17 24.03,16.76 46.53,16.76 30.06,0 54.38,-14.2 72.8,-42.44 18.43,-28.42 27.65,-66.02 27.65,-112.85 0,-54.38 -11.02,-95.6 -33.23,-124.02 -22.05,-28.24 -54.22,-42.43 -96.52,-42.43 -3.16,0 -9.52,0.28 -19.03,0.88 -4.39,0.33 -8,0.63 -11.02,0.91l0 229.14zm-215.4 153.18l0 -22.52c17.98,-1.2 30.51,-6.2 37.6,-14.78 7.11,-8.79 10.59,-28.57 10.59,-59.68l0 -406.18c0,-37.14 -2.56,-60.26 -7.71,-69.18 -5.14,-9.06 -14.65,-14.19 -28.56,-15.69 0,-7.82 0,-15.62 0,-23.42 74.84,4.56 138.84,-12.56 203.48,-28.42l0 186.7 29.15 0c54.38,0 96.21,2.88 125.52,8.63 29.45,5.72 55.57,15.24 78.54,28.54 34.3,20.08 61.49,48.04 81.57,84.12 20.09,35.95 30.07,74.79 30.07,116.31 0,38.09 -8.62,73.11 -25.68,104.98 -17.08,31.89 -41.23,57.42 -72.21,76.9 -19.48,12.07 -41.69,20.83 -66.76,25.98 -25.08,5.14 -62.09,7.7 -111.18,7.7l-284.42 0z"/>
 </g>
</svg>
