<?xml version="1.0" encoding="UTF-8"?>
<!DOCTYPE svg PUBLIC "-//W3C//DTD SVG 1.1//EN" "http://www.w3.org/Graphics/SVG/1.1/DTD/svg11.dtd">
<!-- Creator: CorelDRAW 2021 (64-Bit Evaluation Version) -->
<svg xmlns="http://www.w3.org/2000/svg" xml:space="preserve" width="4.15in" height="2.2in" version="1.1" style="shape-rendering:geometricPrecision; text-rendering:geometricPrecision; image-rendering:optimizeQuality; fill-rule:evenodd; clip-rule:evenodd"
viewBox="0 0 4150 2200"
 xmlns:xlink="http://www.w3.org/1999/xlink"
 xmlns:xodm="http://www.corel.com/coreldraw/odm/2003">
 <defs>
  <style type="text/css">
   <![CDATA[
    .fil0 {fill:black}
    .fil1 {fill:gold}
    .fil2 {fill:#FEFEFE;fill-rule:nonzero}
   ]]>
  </style>
 </defs>
 <g id="Layer_x0020_1">
  <metadata id="CorelCorpID_0Corel-Layer"/>
  <path class="fil0" d="M2500.41 1763.39c38.35,30.48 84.78,45.77 133.69,44.3 25.35,-0.78 50.64,-5.95 74.42,-14.8 13.86,-5.15 27.69,-11.01 39.92,-19.4 41.24,-28.29 63.48,-76.87 75.47,-123.92 9.32,-36.57 13.51,-74.81 14.72,-112.47 62.21,9.25 123.96,20.3 185.35,33.97 129.54,28.87 257.4,68.2 379.33,120.78 30.69,13.24 61.27,27.24 91,42.51 19.7,10.12 39,21.02 58.98,30.57 51.23,24.46 105.01,44.55 160.65,56.24 90.13,18.99 188.75,14.54 265.85,-40.78 57.78,-41.43 94.34,-107.37 98.98,-178.3 4.32,-65.85 -19.88,-133.14 -73.55,-173.7 -55.53,-41.97 -127.19,-45.42 -192.89,-29.92 -14.72,3.46 -29.31,7.56 -43.55,12.67 -4.26,1.53 -7.8,4.59 -11.56,7.09 -29.43,19.43 -49.2,50.05 -49.2,85.91 0,30.93 15.47,62.98 42.29,79.32 19.62,11.97 43.93,13.81 64.66,3.31 1.63,-0.82 2.88,-2.23 4.32,-3.39 9.73,-7.7 18.77,-17.68 21.39,-30.17 2.39,-11.36 -0.88,-22.01 -8.44,-30.66 -1.28,-1.46 -2.75,-2.8 -3.85,-4.43 -0.35,-0.49 10.85,-0.87 11.87,-0.82 31.39,0.93 65.34,19 78.67,48.28 11.71,25.76 7,55.44 -2.09,81.23 -1.8,5.09 -3.66,10.19 -6.03,15.04 -1.19,2.45 -3.04,4.54 -4.63,6.76 -12.88,17.94 -27.98,34.26 -46.57,46.37 -49.8,32.43 -112.63,25.42 -167.22,10.87 -30.81,-8.21 -60.88,-19.36 -90.2,-31.86 -29.57,-12.58 -58.61,-26.61 -87.06,-41.53 -5.59,-2.94 -11.06,-6.06 -16.63,-9.03 -94.92,-50.65 -196.03,-90.29 -298.44,-122.88 -100.47,-31.94 -203.17,-57.1 -306.82,-76.27 -17.98,-3.35 -35.99,-6.51 -54.03,-9.43 0,-124.92 -0.02,-233.43 0,-358.33 0,-8.57 0.18,-17.7 2.1,-26.09 0.74,-3.23 0.59,-3.59 3.58,-4.68 3.62,-1.3 7.63,-1.97 11.43,-2.36 10.37,-1.05 40.44,0.3 45.31,0.92 3.41,0.43 11.01,1.57 12.67,5.33 0.85,1.92 1.39,4.07 1.83,6.12 1.89,8.95 2.17,18.45 2.17,27.58 0,67.01 0,134.06 0,201.07 0,9.92 -0.17,20.76 -2.62,30.41 -1.01,3.94 -0.92,4.46 -4.73,5.47 -1.67,0.43 -3.43,0.71 -5.14,0.85l-23.63 1.92 0 65.85c170.17,0 340.33,0 510.5,0l0 -64.04c-7.28,-1.2 -14.56,-2.4 -21.84,-3.62 -5.11,-0.86 -12.72,-2.54 -14.81,-8.04 -1.58,-4.17 -2.85,-8.83 -2.91,-13.26l-1.69 -186.73c-0.24,-26.89 -1.7,-55.08 -9.65,-80.93 -25.55,-83 -131.42,-84.48 -198.4,-53.74 -16.96,7.77 -32.28,18.06 -46.68,29.88 -4.46,-15.67 -11.22,-29.11 -18.52,-43.47l-198.49 13.1c-96.98,8.17 -231.17,-20.1 -286.6,-18.9 -48.66,0.02 -99.69,5.74 -144.37,26.16 -24.64,11.27 -46.91,27.14 -64.37,47.97 -32.85,39.14 -44.24,90.51 -43.21,140.64 0.8,39.61 12.09,77.44 33.84,110.59 12.19,18.6 27.3,35.61 44.47,49.74 34.08,28.06 75.56,43.59 119.35,47.22 26.81,2.24 53.85,3.07 80.75,3.89 0.85,0.01 11.79,0.26 11.8,0.4l2.84 30.44c-112.12,-12.07 -224.42,-21.26 -337.24,-22.22 -64.89,-0.56 -129.78,1.49 -194.46,6.72 -98.5,7.99 -196.27,23.41 -292.32,46.72 -9.79,2.36 -19.45,5.31 -29.31,7.37 -20.14,4.19 -40.39,7.83 -60.65,11.37 -145,25.34 -293.17,38.36 -440.39,32.23 -101.17,-4.24 -203.38,-17.5 -300.67,-46.31 -54.09,-16.03 -107.43,-37.14 -155.89,-66.27 -61.45,-36.91 -120.55,-91.02 -137.34,-163.46 -1.99,-8.59 -3.31,-16.65 -3.8,-25.42 3.98,-1.97 8.04,-3.8 11.93,-5.95 57.2,-31.57 92.39,-87.24 104.44,-150.61 10.37,-54.54 3.73,-113.88 -19.84,-164.25 -12.44,-26.57 -29.96,-50.26 -51.46,-70.2 -42.63,-39.6 -100.16,-59.49 -157.13,-66.24 -67.13,-7.95 -135.17,1.36 -199.89,19.58 -6.24,1.78 -12.09,3.78 -18.48,4.85 -28.88,4.8 -56.33,13.65 -83.81,23.54 -29.8,10.73 -59.36,21.69 -89.88,30.35 -5.15,1.44 -10.32,2.84 -15.5,4.19 -5.58,1.46 -9.33,2.02 -15.04,1.8 -1.22,-0.03 -10.51,-0.65 -10.51,-2.37 0.03,-6.12 3.59,-13.18 6.54,-18.35 1.59,-2.81 3.69,-5.39 5.13,-8.23 0.73,-1.43 1.05,-3.05 1.56,-4.57 6.34,-19.45 0.11,-39.41 -19.22,-48.31 -5.72,-2.65 -11.97,-3.97 -18.22,-4.52 -8.27,-0.71 -16.51,0.54 -24.65,2.05 -31.19,5.81 -62.9,22.48 -77.18,52.14 -12.84,26.65 -7.11,56.08 13.54,76.94 5.3,5.35 11.36,9.96 17.82,13.85 4.77,2.85 9.8,4.97 14.65,7.61 23.2,12.74 48.74,15.78 74.81,15.38 8.79,-0.15 17.56,-0.64 26.33,-1.18 1.84,-0.12 5.68,1.05 6.64,3.02 1.48,3.04 2.13,6.87 2.67,10.16 1.74,10.61 2,21.61 2,32.33 0.02,132.18 0.02,264.39 0,396.56 0,8.13 0.13,16.57 -0.87,24.66 -0.17,1.44 -0.24,2.32 -0.95,3.5 -2.27,3.76 -1.85,4.86 -5.99,5.7 -2.26,0.43 -4.64,0.52 -6.94,0.42l-26.77 -1.41 0 97.09 333.94 -0.07 0 -92.31c-7.11,-1.33 -14.21,-2.67 -21.32,-4 -5.13,-0.99 -12.27,-2.91 -15.13,-7.78 -1.01,-1.72 -2.06,-3.44 -3.09,-5.16 -1.52,-2.56 -1.63,-5.3 -1.88,-8.25 -0.59,-6.96 -0.63,-14.01 -0.63,-20.97l0 -81.22 20.62 -5.1c1.72,9.28 2.92,18.67 5.17,27.83 18.52,75.02 67.92,139.9 124.15,191.24 59.88,54.68 130.78,97.59 204.51,130.83 134.56,60.68 283.03,91.39 430.2,96.75 134.66,4.88 269.93,-11.44 399.89,-46.86 20.44,-5.56 40.97,-10.92 60.93,-18 11.48,-4.1 22.03,-10.43 33.13,-15.47 118.81,-53.76 244.42,-90.6 373.31,-110.13 188.88,-28.6 380.96,-19.7 569.28,8.7 1.78,21.94 1.3,44.28 -4.27,65.69 -5.76,22.14 -19.2,48.39 -44.44,51.8 -24.67,3.35 -47.61,-14.51 -64.41,-30.26 -38.76,-36.26 -79.21,-73.57 -130.69,-90.46 -30.18,-9.91 -61.76,-11.91 -93.3,-10.11 -3.48,0.2 -6.99,0.08 -10.41,0.7 -51.07,9.17 -98.06,32.03 -136.27,69.2 -30.4,29.6 -47.23,82.31 -40.87,130.56 10.04,76.22 55.65,138.16 129.56,155.85 87.39,20.88 150.86,-23.82 184.54,-44.72 45.49,-28.25 2.76,-89.78 -40.05,-63.68 -29.46,18.98 -177.22,-19.66 -118.07,-125.79 6.59,-11.8 22.11,-19.61 35.08,-23.33 27.68,-7.98 54.43,6.24 75.22,23.7 19.12,16.03 35.25,35.87 49.48,56.3 8.37,12 15.83,24.54 24.67,36.21 11.98,15.87 28.1,32.85 43.69,45.24zm861.48 -585.92c0,38.7 7.72,77.22 26.78,111.22 27.59,49.19 74.99,82.42 128.51,98.18 24.5,7.2 49.96,10.91 75.43,12.14 62.09,3.05 127.52,-6.48 180.28,-41.36 38.06,-25.17 66.45,-61.24 80.64,-104.71 5.39,-16.56 8.68,-33.77 10.2,-51.11 5.11,-58.11 -7.13,-117.35 -44.74,-163.14 -10.79,-13.11 -23.3,-24.81 -36.95,-34.9 -54.24,-40.04 -123.45,-51.11 -189.44,-47.88 -41.2,2.02 -82.47,10.52 -119.28,29.67 -47.5,24.74 -83.68,65.29 -100.26,116.44 -7.89,24.33 -11.18,49.91 -11.18,75.45zm246.45 -115.18c11.81,0.05 20.5,5.08 27.79,14.24 9.4,11.79 14.95,27.33 18.64,41.8 5.8,22.79 7.72,46.77 8.13,70.22 0.35,20.18 -0.45,40.71 -5.64,60.32 -4.49,16.94 -14.7,41.58 -34.98,43.6 -12.58,1.24 -23.47,-3.35 -31.7,-12.8 -10.17,-11.7 -15.85,-27.92 -19.52,-42.73 -5.47,-22.06 -7.37,-45.2 -7.95,-67.87 -0.56,-21.98 -0.05,-44.39 6.29,-65.61 5.16,-17.21 16.13,-39.78 36.64,-41.09 0.76,-0.04 1.53,-0.08 2.3,-0.08zm-979.66 0.03c0,67.3 0,134.59 0,201.89 0,5.21 -0.3,12.2 -3.04,16.87 -2.05,3.48 -6.61,4.27 -10.32,4.67 -13.62,1.49 -25.76,-2.53 -35.09,-12.65 -12.96,-14.04 -19.05,-34.69 -21.97,-53.13 -2.17,-13.62 -2.84,-27.49 -2.67,-41.25 0.43,-33.94 6.59,-74.8 31.89,-99.8 10.85,-10.71 24.61,-16.39 39.88,-16.59l1.32 -0.01zm-1847.91 115.15c0,38.7 7.72,77.22 26.78,111.22 27.59,49.19 74.99,82.42 128.51,98.18 24.5,7.2 49.96,10.91 75.43,12.14 62.09,3.05 127.52,-6.48 180.28,-41.36 38.06,-25.16 66.46,-61.25 80.64,-104.71 5.39,-16.56 8.69,-33.77 10.2,-51.11 5.11,-58.09 -7.13,-117.35 -44.74,-163.14 -10.79,-13.11 -23.29,-24.81 -36.95,-34.9 -54.24,-40.04 -123.45,-51.11 -189.44,-47.88 -41.2,2.02 -82.47,10.52 -119.28,29.67 -47.49,24.74 -83.68,65.29 -100.26,116.44 -7.89,24.33 -11.18,49.91 -11.18,75.45zm246.45 -115.18c11.81,0.05 20.5,5.08 27.78,14.24 9.42,11.79 14.97,27.33 18.65,41.8 5.8,22.81 7.72,46.75 8.13,70.22 0.35,20.18 -0.45,40.71 -5.64,60.32 -4.49,16.94 -14.72,41.58 -34.98,43.6 -11.88,1.17 -22.52,-2.89 -30.61,-11.59 -10.22,-11 -16.06,-26.7 -19.84,-40.97 -6.48,-24.38 -8.39,-50.25 -8.8,-75.39 -0.44,-26.38 0.96,-55.56 13.81,-79.26 3.55,-6.57 8.19,-13.13 14.29,-17.56 5.12,-3.71 10.92,-5.41 17.21,-5.39zm328.57 148.61c19.91,12.15 41.84,20.32 64.29,26.43 9.83,2.66 19.69,5.32 29.59,7.73 17.86,4.36 36.28,8.21 52.65,16.9 4.32,2.28 10.03,5.59 12.79,9.8 0.34,0.52 0.69,1.14 0.73,1.75 0.62,11.11 -13.23,16.83 -21.89,19.44 -5.67,1.71 -11.54,2.74 -17.43,3.35 -32.59,3.29 -67.28,-3.5 -91.08,-27.35 -13.76,-13.77 -22.42,-31.41 -27.6,-50.04 -0.74,-2.66 -1.39,-5.34 -2.05,-8.01zm289.67 -89.44l24 0 -14.42 -174.64c-12.27,5.01 -24.46,10.23 -36.85,14.94 -7.59,2.87 -16.29,6.3 -24.57,5.54 -12.69,-1.17 -25.34,-3.79 -37.9,-5.93 -21.62,-3.74 -43.37,-6.25 -65.34,-5.94 -50.98,0.72 -102.26,12.24 -142.78,44.67 -11.7,9.37 -22.13,20.31 -30.4,32.83 -26.29,39.78 -28.74,97.01 -3.17,137.82 5.61,8.95 12.44,16.93 20.22,24.06l-48.3 0 15.59 206.42c12.4,-4.14 24.77,-8.39 37.24,-12.35 6.2,-1.97 12.81,-4.04 19.27,-4.97 0.74,-0.1 2.17,0.31 2.93,0.44 15.42,2.72 30.65,6.39 46.05,9.17 39.36,7.09 79.1,7.72 118.84,2.78 54.22,-6.74 110.54,-26.42 144.98,-71.16 24.08,-31.3 33.23,-71.58 29.69,-110.55 -1.2,-13.4 -4.19,-26.63 -9.35,-39.08 -9.36,-22.58 -25.41,-40.71 -45.75,-54.06zm-49.35 -22.89c-24.39,-7.91 -49.33,-14.36 -74.01,-21.46 -11.32,-3.24 -22.84,-6.43 -33.01,-12.58 -0.48,-0.31 -5.67,-3.66 -5.24,-4.07 6.13,-6.11 16.28,-8.17 24.54,-8.63 22.66,-1.26 44.83,5.47 62.89,19.21 9.91,7.53 18.25,17 24.83,27.53zm180.23 112.33c19.91,12.15 41.85,20.32 64.29,26.43 9.83,2.66 19.7,5.32 29.6,7.73 17.86,4.36 36.27,8.21 52.65,16.9 4.33,2.28 10.04,5.59 12.8,9.8 0.34,0.52 0.69,1.14 0.71,1.75 0.62,11.11 -13.23,16.83 -21.88,19.44 -5.67,1.71 -11.56,2.74 -17.44,3.35 -32.57,3.29 -67.27,-3.5 -91.07,-27.35 -13.76,-13.77 -22.43,-31.4 -27.6,-50.04 -0.74,-2.66 -1.39,-5.34 -2.06,-8.01zm289.67 -89.44l24.02 0 -14.44 -174.64c-12.26,5.01 -24.46,10.23 -36.83,14.94 -7.59,2.87 -16.29,6.3 -24.57,5.54 -11.92,-1.1 -23.88,-3.46 -35.65,-5.54 -22.33,-3.97 -44.87,-6.64 -67.59,-6.33 -50.97,0.72 -102.26,12.24 -142.76,44.67 -11.7,9.37 -22.13,20.31 -30.4,32.83 -26.29,39.78 -28.75,97.01 -3.16,137.82 5.6,8.95 12.44,16.93 20.22,24.06l-48.3 0 15.59 206.42c14.53,-4.84 29.23,-10.2 44.04,-14.41 3.79,-1.05 7.68,-2.07 11.54,-2.75 1.65,-0.3 3.11,0.16 4.76,0.46 18.34,3.31 36.46,7.78 54.87,10.62 36.1,5.61 72.86,5.65 109.12,1.15 54.22,-6.74 110.54,-26.42 144.97,-71.16 24.08,-31.3 33.24,-71.58 29.7,-110.55 -1.22,-13.4 -4.19,-26.63 -9.35,-39.08 -9.36,-22.58 -25.42,-40.71 -45.77,-54.06zm-49.33 -22.89c-23.09,-7.47 -46.81,-13.02 -69.97,-20.24 -8.44,-2.63 -16.78,-4.67 -25.08,-7.99 -5.82,-2.35 -12.53,-5.31 -17.17,-9.65 -0.31,-0.3 1.14,-1.31 1.44,-1.54 6.56,-5.07 14.93,-6.87 23.06,-7.31 34.72,-1.93 65.96,14.64 85.39,43.19 0.79,1.16 1.58,2.36 2.33,3.56zm1116.47 224.25c-2.18,0.03 -4.26,-0.92 -6.38,-1.4 -6.29,-1.37 -14.06,-4.03 -16.42,-10.69 -1.56,-4.33 -2.32,-9.1 -2.93,-13.66 -1.71,-12.61 -2.01,-25.48 -2.01,-38.18 0,-22.85 -0.02,-45.72 0,-68.56 0,-22.91 1.57,-47.69 9.5,-69.4 4.9,-13.37 13.18,-27.98 28.34,-30.94 3.58,-0.7 10.18,-1.45 13.73,0.39 2.32,1.21 3.45,6.33 3.98,8.5 2.67,10.83 2.98,22.67 2.98,33.76 0,47.57 0,95.11 0,142.67 0,10.66 -0.31,22.29 -3.16,32.64 -0.5,1.76 -1.08,3.56 -1.91,5.19 -2.7,5.28 -10.85,7.24 -16.11,8.11 -3.2,0.54 -6.38,1.54 -9.62,1.57zm706.7 1.09l0 65.01 265.22 0 0 -62.87c-6.81,-1.52 -13.63,-3.06 -20.44,-4.57 -5.96,-1.35 -13.8,-3.85 -15.89,-10.29 -1.52,-4.69 -2.23,-9.79 -2.8,-14.69 -1.46,-12.43 -1.74,-25.08 -1.74,-37.6l0 -494.46c-17.93,10.09 -35.31,20.78 -54.04,29.22 -25.77,11.63 -52.51,21.88 -79.46,30.36 -5.96,1.88 -11.97,3.66 -18.02,5.3 -17.18,4.63 -35.09,8.68 -52.95,5.74 -0.53,-0.09 -4.69,-0.81 -4.86,-1.14 -0.4,-0.77 3.59,-8.68 4.12,-9.63 0.82,-1.49 1.69,-2.97 2.59,-4.39 3.37,-5.35 5.24,-9.57 6.34,-15.73 2.28,-12.63 -1.3,-25.19 -11.23,-33.67 -14.95,-12.78 -36.29,-10.59 -53.95,-6.24 -26.73,6.56 -52.85,23.07 -62.74,49.87 -10.21,27.65 1.14,55.23 24.51,71.89 3.72,2.65 7.65,4.94 11.71,7.02 4.14,2.11 8.44,4.37 12.67,6.32 26.68,12.29 55.6,10.69 84.11,8.95 0.35,-0.02 0.56,-0.22 0.63,0.15 2.17,12.45 2.28,25.59 2.33,38.18 0.48,112.57 0.01,225.2 0,337.77 0,8.11 -0.21,16.29 -1.29,24.3 -0.24,1.88 -0.96,8.94 -2.72,9.93 -2.7,1.52 -6.36,2.19 -9.39,2.54l-22.72 2.72zm-3420.11 -253.33c0,-36.56 0,-73.11 0,-109.65 0,-6.12 0.21,-12.92 2.04,-18.83 0.24,-0.76 10.17,-1.89 11.45,-2.05 12.88,-1.56 25.94,-2.27 38.91,-2.52 13.53,-0.28 29.21,-0.12 41.79,5.59 7.83,3.53 11.83,8.99 13.97,17.25 1.87,7.25 2.09,15.28 1.53,22.69 -1.59,21.15 -11.63,39.24 -27.22,53.39 -6.83,6.2 -15.68,10.66 -24.03,14.45 -18.67,8.47 -38.63,14.42 -58.43,19.67zm1892.63 -106.19c26.37,-28.61 30.01,-72.41 9.45,-105.28 -7.03,-11.26 -16.69,-21.23 -27.44,-28.95 -34.51,-24.82 -83.57,-24.42 -117.61,1.09 -15.03,11.26 -27.08,26.6 -33.22,44.42 -10.26,29.8 -4.32,62.8 16.08,86.83 6.55,7.74 14.13,14.26 22.67,19.71l-72.63 9.96 0 62.16c7.34,1.04 14.7,2.06 22.04,3.09 1.04,0.15 4.52,0.59 4.8,1.71 0.71,2.68 1.11,5.48 1.45,8.23 1.46,11.87 1.61,24.06 1.61,35.99 0,60.34 0,120.72 0,181.05 0,9.76 -0.14,20.37 -2.49,29.92 -0.27,1.09 -0.61,3.29 -1.59,3.97 -2.57,1.8 -6.69,2.54 -9.72,2.89l-22.69 2.72 0 65.01 265.59 0 0 -62.91c-6.85,-1.53 -13.7,-3.04 -20.53,-4.56 -6.63,-1.48 -14.1,-4.15 -16.39,-11.14 -1.01,-3.1 -1.65,-6.33 -2.18,-9.52 -2.23,-13.74 -2.52,-28.03 -2.52,-41.91l0 -296.5 -14.68 2z"/>
  <path class="fil1" d="M395.13 1101.83c43.37,-9.57 99.96,-25.37 123.59,-47.13 23.65,-21.76 35.54,-47.86 35.54,-78.17 0,-22.04 -6.06,-38.18 -18.27,-48.44 -12.14,-10.19 -31.32,-15.22 -57.43,-15.22 -23.2,0 -62.11,2.61 -70.67,7.83 -8.54,5.22 -12.76,18.7 -12.76,40.17l0 140.96zm3505.44 -152.46c0,-30.62 -2.13,-49.58 -6.35,-57.05 -3.79,-6.67 -10.45,-7.69 -20.01,-9.37 -0.01,0.21 -0.03,0.43 -0.04,0.66 -28.34,1.7 -57.7,4.39 -81.95,-10.27 -54.64,-22.99 -34.51,-82.74 34.5,-88.01 14.86,0.48 20.13,6.72 15.82,18.69 -20.18,30.57 -20.49,56.38 29.66,56.58 41.36,2.05 147.42,-42.26 167.39,-54.03l0 452.35c0,34.51 2.87,56.83 8.73,66.79 5.85,9.96 16.56,16.69 32.14,20.04l0 18.57 -216.02 0 0 -18.57c13.33,-1.49 22.83,-5.82 28.16,-13.06 5.38,-7.34 7.98,-23.44 7.98,-48.22l0 -335.11zm-3706.59 397.18c0,36.29 -2.52,35.6 -7.52,44.46 -7.33,12.93 -22.42,14.99 -34,14.32l0 46.53 284.74 -0.06 0 -47.3c-16.09,-2.89 -27.15,-9.4 -33.06,-19.71 -5.98,-10.41 -9,-10.57 -9,-46.82l0 -100.54 67.69 -16.74c0.86,280.96 566.01,590.42 1193.65,389.63 338.7,-162.84 675.17,-167.17 1006.84,-115.32 21.19,146.51 -66.72,210.54 -152.31,126.72 -79.95,-76.3 -123.85,-100.28 -214.13,-93.44 -311.06,53.7 -119.81,458.26 124.83,265.63 10.96,-11.85 -0.44,-32.87 -16.94,-24.33 -131.1,43.33 -215.01,-93.2 -144.77,-166.63 20.69,-21.63 99.51,-78.53 201.76,79.06 75.74,121.8 187.23,111.16 250.59,82.77 46.42,-17.24 101.89,-78.19 102.25,-255.89 261.2,35.06 501.41,107.73 690.88,203.55 641.01,357.94 705.59,-428.53 273.38,-278.57 -89.17,50.07 -31.3,156.81 23.83,131.31 13.85,-10.66 17.55,-19.46 11.06,-26.41 -78.19,-79.74 209.65,-68.85 118.91,134.78 -67.44,102.55 -173.9,133.87 -429,0.67 -176.29,-97.52 -423.5,-176.89 -689.06,-218.39l0 -379.28c0,-23.3 2.91,-38.49 8.6,-45.25 5.76,-6.82 16.33,-10.93 31.89,-12.45l0 -18.55c-90.55,6.03 -176.08,-14.27 -261.91,-16.52 -75.98,0 -132.79,15.46 -170.66,46.34 -37.87,30.91 -56.82,77.24 -56.82,139.03 0,46.22 15.08,87.09 45.22,122.32 30.15,35.26 68.66,56.51 115.36,63.91 19.2,3.05 78.74,5.03 105.4,5.72 18.98,1.46 21.15,7 23.55,15.74l6.26 67.18c-269.34,-30.58 -556.04,-48.39 -875.36,34.85 -664.12,132.88 -1129.93,-42.03 -1129.52,-297.91 145.24,-52.72 151.92,-253.75 66.73,-343.7 -64.29,-73.9 -200.19,-100.21 -361.54,-49.79l0 -0.11c0,0.03 -0.02,0.08 -0.03,0.13 -65.67,9.37 -110.61,38.16 -201.45,60.67 -53.64,5.02 -58.09,-27.39 -34.03,-63.85 5.16,-14.3 -1.14,-21.75 -18.89,-22.33 -82.47,6.31 -106.53,77.69 -41.24,105.17 28.64,17.31 63.22,14.37 96.7,12.36 9.8,2.61 17.07,7.06 21.7,13.35 6.37,8.66 9.44,27.72 9.44,57.05l0 396.63zm2712.78 17.78l0 -18.57c13.58,-0.97 23.02,-5.5 28.28,-13.68 5.21,-8.13 7.86,-24.06 7.86,-47.6l0 -201.18c0,-23.54 -2.84,-39.63 -8.6,-48.22 -5.71,-8.48 -15.95,-13.58 -30.78,-15.32l-0.36 -18.57 160.44 -10.58c4.49,8.72 8.03,18.66 10.84,29.89 2.8,11.19 4.85,23.91 6.36,38.01 22.16,-25.3 44.98,-43.85 68.39,-55.46 23.55,-11.69 49.83,-17.56 79.1,-17.56 36.51,0 62.07,9.08 76.62,27.16 14.61,18.17 21.92,51.69 21.92,100.67l0 154.71c0,29.65 2.87,49.46 8.73,59.3 5.85,9.86 16.69,15.95 32.5,18.43l0 18.57 -222.6 0 0 -18.57c16.07,-2.48 27.27,-8.57 33.63,-18.43 6.35,-9.83 9.46,-27.16 9.46,-51.94l0 -142.75c0,-25.04 -2.87,-42.6 -8.58,-52.7 -5.73,-10.09 -15.58,-15.2 -29.4,-15.2 -22.43,0 -39.62,10.72 -51.71,32.28 -12.07,21.53 -18.05,52.69 -18.05,93.29l0 68.63c0,33.26 2.96,55.34 8.96,65.92 5.95,10.46 16.95,17.56 33.02,20.91l0 18.57 -216.02 0zm-742.6 -260.96c0,-30.65 -2.11,-49.58 -6.35,-57.07 -4.23,-7.46 -12.07,-11.83 -23.54,-13.33l0 -19.3 168.17 -23.05 0 268.32c0,33.77 3,55.83 8.97,66.17 5.98,10.34 16.82,17.31 32.63,20.66l0 18.57 -216.37 0 0 -18.57c13.33,-1.49 22.8,-5.98 28.27,-13.44 5.48,-7.6 8.22,-23.54 8.22,-47.84l0 -181.11zm72.51 -266.84c19.92,0 37.25,6.85 51.83,20.67 14.56,13.71 21.92,29.78 21.92,48.32 0,18.46 -7.11,34.26 -21.31,47.48 -14.31,13.06 -31.76,19.69 -52.43,19.69 -20.69,0 -38.13,-6.63 -52.2,-19.69 -14.07,-13.22 -21.18,-29.02 -21.18,-47.48 0,-19.05 7.11,-35.24 21.31,-48.7 14.32,-13.58 31.63,-20.3 52.07,-20.3zm-492.41 531.41l-11.2 -148.47 20.05 0c7.98,32.86 23.18,58.04 45.35,75.74 22.3,17.56 50.32,26.39 84.08,26.39 23.91,0 42.85,-4.35 57.18,-12.96 14.2,-8.6 21.3,-20.17 21.3,-34.87 0,-21.79 -25.16,-38.62 -75.48,-50.32 -13.33,-3.13 -23.8,-5.86 -31.27,-7.99 -39,-9.72 -67.52,-23.53 -85.71,-41.48 -18.06,-17.82 -27.16,-40.87 -27.16,-69.13 0,-36.77 15.95,-66.79 47.96,-89.94 32.02,-23.3 74.25,-34.9 126.83,-34.9 16.07,0 35.38,2.01 58.05,5.98 22.67,4.13 36.87,6.11 42.72,6.11 4.35,0 9.46,-0.74 15.08,-2.23 5.72,-1.49 12.96,-3.98 21.79,-7.6l9.48 114.59 -19.31 0c-11.46,-22.18 -26.8,-39.36 -45.98,-51.45 -19.31,-12.2 -40.74,-18.3 -64.65,-18.3 -15.82,0 -28.78,3.37 -38.98,10.08 -10.22,6.6 -15.33,14.57 -15.33,23.91 0,15.34 16.82,27.92 50.58,38.01 4.49,1.11 7.85,2.11 10.22,2.85l62.03 17.81c32.89,9.61 56.93,23.19 72.25,40.99 15.33,17.69 23.05,40.72 23.05,68.88 0,46.22 -17.81,81.98 -53.44,107.28 -35.63,25.26 -86.45,37.97 -152.35,37.97 -22.43,0 -46.09,-2.61 -71.01,-7.85 -24.91,-5.24 -38.62,-7.83 -40.98,-7.83 -3,0 -7.35,0.72 -13.33,2.24 -5.98,1.36 -13.2,3.61 -21.8,6.46zm-420.55 0l-11.22 -148.47 20.06 0c7.96,32.86 23.16,58.04 45.34,75.74 22.3,17.56 50.33,26.39 84.09,26.39 23.91,0 42.85,-4.35 57.17,-12.96 14.2,-8.6 21.31,-20.17 21.31,-34.87 0,-21.79 -25.16,-38.62 -75.49,-50.32 -13.33,-3.13 -23.8,-5.86 -31.27,-7.99 -38.98,-9.72 -67.52,-23.53 -85.7,-41.48 -18.07,-17.82 -27.16,-40.87 -27.16,-69.13 0,-36.77 15.94,-66.79 47.96,-89.94 32.01,-23.3 74.24,-34.9 126.81,-34.9 16.07,0 35.38,2.01 58.05,5.98 22.67,4.13 36.87,6.11 42.73,6.11 4.36,0 9.47,-0.74 15.07,-2.23 5.73,-1.49 12.96,-3.98 21.8,-7.6l9.47 114.59 -19.31 0c-11.46,-22.18 -26.78,-39.36 -45.96,-51.45 -19.31,-12.2 -40.74,-18.3 -64.65,-18.3 -15.82,0 -28.78,3.37 -39,10.08 -10.22,6.6 -15.32,14.57 -15.32,23.91 0,15.34 16.81,27.92 50.57,38.01 4.49,1.11 7.86,2.11 10.22,2.85l62.03 17.81c32.89,9.61 56.93,23.19 72.26,40.99 15.31,17.69 23.03,40.72 23.03,68.88 0,46.22 -17.8,81.98 -53.43,107.28 -35.63,25.26 -86.45,37.97 -152.35,37.97 -22.42,0 -46.09,-2.61 -71,-7.85 -24.91,-5.24 -38.62,-7.83 -41,-7.83 -2.98,0 -7.34,0.72 -13.32,2.24 -5.99,1.36 -13.22,3.61 -21.8,6.46zm-296.48 -330.22c-21.05,0 -38.08,10.61 -50.83,31.76 -12.79,21.2 -19.18,49.69 -19.18,85.69 0,52.83 6.82,93.08 20.56,120.6 13.8,27.68 33.76,41.49 60.04,41.49 20.93,0 37.67,-10.7 50.09,-32.13 12.37,-21.41 18.56,-50.59 18.56,-87.59 0,-50.83 -6.95,-90.2 -20.8,-118.08 -13.8,-27.81 -33.27,-41.72 -58.43,-41.72zm-221.86 139.77c0,-60.8 20.15,-109.03 60.54,-144.38 40.46,-35.42 95.8,-53.08 166.19,-53.08 70.01,0 125.35,17.66 166.04,53.08 40.65,35.35 60.93,83.58 60.93,144.38 0,60.79 -20.31,108.98 -60.8,144.36 -40.49,35.39 -95.92,53.07 -166.17,53.07 -70.38,0 -125.72,-17.65 -166.19,-53.07 -40.39,-35.33 -60.54,-83.57 -60.54,-144.36zm1847.91 86.81l0 -225.09c-2.49,-0.24 -5.73,-0.48 -9.84,-0.76 -7.34,-0.47 -11.96,-0.73 -13.94,-0.73 -30.15,0 -54.07,12.96 -71.89,38.84 -17.81,25.91 -26.65,61.31 -26.65,106.04 0,39.85 7.13,71.23 21.18,93.91 14.1,22.79 33.51,34.15 58.05,34.15 14.57,0 25.44,-3.84 32.51,-11.48 7.13,-7.69 10.58,-19.31 10.58,-34.87zm955.07 -226.58c-21.05,0 -38.08,10.61 -50.83,31.76 -12.79,21.2 -19.18,49.69 -19.18,85.69 0,52.83 6.82,93.08 20.56,120.6 13.8,27.68 33.76,41.49 60.05,41.49 20.92,0 37.67,-10.7 50.07,-32.13 12.37,-21.41 18.56,-50.59 18.56,-87.59 0,-50.83 -6.95,-90.2 -20.8,-118.08 -13.8,-27.81 -33.26,-41.72 -58.43,-41.72zm-221.86 139.77c0,-60.8 20.15,-109.03 60.54,-144.38 40.46,-35.42 95.8,-53.08 166.19,-53.08 70.01,0 125.35,17.66 166.06,53.08 40.63,35.35 60.9,83.58 60.9,144.38 0,60.79 -20.3,108.98 -60.79,144.36 -40.49,35.39 -95.92,53.07 -166.17,53.07 -70.38,0 -125.72,-17.65 -166.19,-53.07 -40.39,-35.33 -60.54,-83.57 -60.54,-144.36z"/>
  <path class="fil0" d="M2241.05 593.2c-2.81,-6.08 -5.19,-12.32 -7.21,-18.72 -10.08,7.73 -20.53,14.81 -31.7,20.88 -24.21,13.15 -50.72,20.93 -78.15,23.38 -42.77,3.84 -93.47,-2.7 -119.67,-40.96 -10.36,-15.13 -15.93,-33.34 -19.22,-51.23 -3.32,-18.03 -4.49,-36.51 -4.65,-54.82 -0.56,-56.78 0.39,-113.58 -0.04,-170.36 -0.12,-15.9 2.62,-34.44 -17.02,-36.93l-22.71 -2.88 0 -63.42 226.85 -13.54c0,89.47 -0.01,178.91 0,268.37 0,9.44 0.37,19.31 2.54,28.56 2.9,12.45 7.94,13.72 19.83,11 18.56,-4.24 26.68,-26.2 30.63,-42.59 4.4,-18.21 5.54,-37.34 5.54,-56.02 0,-30.17 0,-60.31 0,-90.47 0,-9.83 -0.16,-20.81 -2.83,-30.36 -1.94,-6.91 -8.47,-7.78 -14.89,-8.68l-22.4 -3.14 0 -63.16 227.59 -13.5c0,105.39 0,210.8 0,316.2 0,16.83 -3.2,35.34 17.41,38.3 11.66,1.65 19.09,2.45 30.79,1.58 20.61,-1.53 15.76,-19.39 15.76,-36.82 0.02,-111.65 0.02,-223.28 0,-334.9 0,-7.99 -0.13,-15.99 -0.57,-23.98 -0.39,-6.76 1.32,-20.57 -6.77,-21.53l-22.56 -2.69 0 -67.09c17.46,0.92 34.87,2.27 52.36,1.87 44.08,-1.01 86.59,-11.57 129.17,-22.02l35.48 -8.71 0 160.74c30.49,0.06 61.37,0.77 91.61,4.92 40.44,5.55 79.01,19.28 111.39,44.61 23.9,18.67 42.91,42.47 56.85,69.37 34.49,66.54 33.35,150.04 -7.59,213.52 -21.37,33.12 -53.29,59.56 -90.06,73.91 -33.19,12.96 -68.84,15.38 -104.12,16.29l-453.94 0.87 0 38.05c-4.96,5.25 -9.88,10.57 -14.9,15.77 -43.33,45.04 -98.5,82.28 -161.91,89.41 -58.54,6.59 -113.78,-13.67 -161.56,-46.51 -10.58,-7.28 -20.32,-15.37 -30.54,-23.08 -38.62,-29.15 -87.36,-36.99 -133.74,-45.47 -11.63,-2.14 -23.28,-4.3 -34.86,-6.74 -14.02,-2.98 -27.91,-6.5 -41.85,-9.87l6.16 -76.78c7.02,-0.83 14.02,-1.66 21.04,-2.52 8.16,-0.96 10.18,-1.4 11.56,-9 1.65,-9.05 1.84,-18.57 1.84,-27.78 0,-111.68 0,-223.33 0,-335 0,-8 -0.13,-15.99 -0.58,-23.94 -0.38,-6.78 1.32,-20.61 -6.76,-21.57l-22.55 -2.67 0 -67.81c11.93,0.93 23.89,2.1 35.85,2.78 47.08,2.7 94.23,-5.46 139.09,-19.41 14.46,-4.49 28.81,-9.41 43.21,-14.11l-0.29 502.07c3.4,2.49 6.61,5.22 9.73,8.06 20.96,19.09 37.63,42.5 58.45,61.7 1.44,1.33 2.9,2.66 4.41,3.89 31.53,25.96 70.09,54.56 113.32,50.53 15.54,-1.46 30.53,-6.64 44.85,-12.64 25.63,-10.71 50.07,-24.18 75.39,-35.57l16.9 -7.64zm-553.64 -301.97l-68.31 11.67c-16.41,-31.17 -32.85,-62.89 -55.54,-90.11 -10.93,-13.11 -23.37,-24.83 -38.72,-32.56 -22.71,-11.43 -50.79,-12.72 -74.98,-5.6 -12.88,3.79 -24.57,10.3 -34.65,19.14 -41.09,36.03 -47.19,95.32 -41.69,146.51 1.57,14.55 4.32,28.98 8.51,43.02 15.15,50.79 52.28,101.46 105.09,116.67 21.81,6.29 46.61,6.99 68.84,2.06 9.04,-2.01 17.82,-5.05 26.09,-9.19 30.89,-15.44 52.04,-44.85 65.71,-75.76l9.88 -22.35 65.33 17.28 -73.56 210.4c-14.58,-4.57 -28.95,-9.95 -44.16,-11.81 -13.97,-1.71 -27.78,0 -41.68,1.7 -16.73,2.04 -33.35,4.73 -50.1,6.51 -40.33,4.26 -80.85,2.69 -120.61,-5.98 -22.57,-4.93 -44.61,-12.22 -65.51,-22.09 -71.23,-33.62 -126.04,-95.94 -150.6,-170.74 -9.02,-27.47 -14.02,-56.16 -15.78,-85 -4.17,-68.5 7.22,-141.72 51.84,-196.21 29.18,-35.67 69.11,-58.98 112.87,-72.22 59.4,-17.96 122.79,-18.24 184.15,-12.56 16.81,1.53 33.65,3.56 50.53,4.33 12.9,0.61 25.7,-3.06 37.83,-7.15 12.15,-4.07 24.13,-8.7 36.17,-13.1l53.04 253.13zm977.31 0.5l-0.03 0 -0.07 0c0,55.26 0,110.54 0,165.82 0,12.71 0.25,26.29 3.1,38.75 1.5,6.6 2.26,8.94 9.41,10.48 11.84,2.57 25.21,1.06 35.37,-5.8 6.99,-4.75 12.57,-11.52 16.96,-18.65 16.55,-26.89 19,-62.2 17.35,-92.92 -1.78,-32.8 -10.39,-72.87 -42.35,-89.33 -12.37,-6.37 -26,-8.22 -39.76,-8.35z"/>
  <path class="fil1" d="M1658.1 271.28l-25.54 4.37c-25.04,-47.97 -48.96,-81.6 -71.89,-100.91 -22.8,-19.3 -49.2,-29.02 -79.1,-29.02 -40.11,0 -72.63,14.95 -97.3,44.72 -24.67,29.79 -37,69.15 -37,118.11 0,63.03 16.95,115.71 50.95,157.95 33.88,42.22 76.36,63.29 127.44,63.29 33.38,0 62.16,-8.84 86.45,-26.55 24.29,-17.55 44.22,-44.09 59.54,-79.35l19.31 5.11 -56.92 162.81c-7.11,-2.24 -14.2,-3.85 -21.18,-4.99 -7.11,-1.1 -13.83,-1.62 -20.44,-1.62 -9.71,0 -27.78,1.87 -54.06,5.61 -26.29,3.85 -47.59,5.73 -64.16,5.73 -86.32,0 -156.21,-26.53 -209.53,-79.61 -53.2,-53.04 -79.85,-121.95 -79.85,-206.9 0,-77.61 22.05,-136.16 66.02,-175.54 44.09,-39.48 109.25,-59.15 195.57,-59.15 19.44,0 42.23,1.24 68.39,3.85 26.17,2.61 42.6,3.85 49.09,3.85 6.85,0 14.45,-0.97 22.8,-2.98 8.47,-1.87 18.19,-4.97 29.4,-9.09l41.98 200.31zm96.53 -101.78c0,-30.62 -2.11,-49.57 -6.34,-57.04 -4.24,-7.47 -12.09,-11.71 -23.55,-12.96 0,-6.43 0,-12.87 0,-19.3 52.19,4.56 108.5,-3.27 168.92,-23.43l-0.27 482.2c21.27,7.6 53.52,54.99 81.39,78.41 117.23,98.45 163.2,48.41 269.39,1.4 0,6.2 0,12.37 0,18.56 -84.03,91.37 -193.87,136.06 -323.97,30.02 -58.37,-47.56 -130.64,-47.24 -204.56,-65.72l2.87 -35.77c13.33,-1.49 22.8,-5.83 28.15,-13.06 5.36,-7.35 7.96,-23.42 7.96,-48.21l0 -335.12zm250.39 297.48l0 -163.56c0,-24.16 -2.87,-40.23 -8.72,-48.59 -5.86,-8.21 -16.2,-13.2 -31.02,-14.94l0 -18.57 177.64 -10.58 0 242.29c0,22.93 3,39.5 9.1,49.71 6.09,10.2 15.81,15.31 29.27,15.31 22.67,0 39.87,-10.57 51.7,-31.76 11.83,-21.18 17.69,-51.96 17.69,-92.31l0 -90.55c0,-23.91 -2.87,-40 -8.73,-48.22 -5.85,-8.22 -16.31,-13.33 -31.39,-15.32l0 -18.57 178.39 -10.58 0 290.12c0,23.93 2.87,39.76 8.72,47.84 5.86,7.99 16.2,12.96 31.02,14.97l0 20.79 -164.56 0c-4.11,-8.47 -7.22,-17.56 -9.47,-27.04 -2.11,-9.45 -3.49,-20.04 -3.98,-31.76 -22.43,23.91 -45.47,41.37 -69.14,52.57 -23.8,11.22 -49.71,16.82 -77.98,16.82 -36,0 -61.41,-9.24 -76.23,-27.54 -14.84,-18.43 -22.31,-51.94 -22.31,-100.54zm635 -9.4c0,31.41 3.49,51.69 10.59,61.06 7.11,9.21 19.81,13.83 38.37,13.83 24.78,0 44.85,-11.71 60.04,-35 15.2,-23.43 22.8,-54.44 22.8,-93.07 0,-44.85 -9.09,-78.84 -27.41,-102.27 -18.18,-23.3 -44.72,-34.99 -79.6,-34.99 -2.61,0 -7.85,0.23 -15.69,0.72 -3.62,0.28 -6.6,0.52 -9.09,0.76l0 188.97zm-177.64 126.33l0 -18.57c14.83,-0.99 25.16,-5.11 31.01,-12.19 5.86,-7.25 8.73,-23.56 8.73,-49.22l0 -334.98c0,-30.63 -2.11,-49.7 -6.35,-57.05 -4.24,-7.47 -12.09,-11.7 -23.56,-12.94 0,-6.44 0,-12.88 0,-19.31 61.72,3.76 114.51,-10.36 167.81,-23.44l0 153.97 24.05 0c44.85,0 79.34,2.37 103.52,7.12 24.29,4.72 45.83,12.57 64.77,23.54 28.28,16.56 50.71,39.62 67.27,69.37 16.57,29.65 24.8,61.68 24.8,95.92 0,31.41 -7.11,60.29 -21.18,86.58 -14.09,26.3 -34.01,47.35 -59.56,63.42 -16.07,9.96 -34.38,17.19 -55.06,21.43 -20.69,4.24 -51.2,6.35 -91.69,6.35l-234.56 0z"/>
  <path class="fil2" d="M145.58 2169.43l0 -185.26 106.65 0c18.75,0 33.09,0.61 42.98,1.78 13.89,1.5 25.54,4.4 34.95,8.65 9.34,4.24 16.91,10.23 22.65,17.87 5.72,7.68 8.56,16.09 8.56,25.28 0,15.74 -7.64,29.11 -22.92,40.02 -15.33,10.87 -42.98,16.37 -82.94,16.37l-72.54 0 0 75.3 -37.39 0zm37.39 -97.18l73.13 0c24.16,0 41.33,-2.93 51.47,-8.85 10.14,-5.9 15.2,-14.2 15.2,-24.89 0,-7.77 -2.96,-14.42 -8.95,-19.92 -5.99,-5.54 -13.83,-9.16 -23.63,-10.92 -6.31,-1.07 -17.91,-1.63 -34.89,-1.63l-72.34 0 0 66.21zm269.51 6.95c0,-30.78 12.58,-54.83 37.79,-72.21 25.21,-17.41 57.72,-26.12 97.62,-26.12 26.06,0 49.62,4.11 70.55,12.26 20.93,8.21 36.93,19.58 47.92,34.22 11,14.57 16.46,31.18 16.46,49.69 0,18.82 -5.73,35.63 -17.3,50.43 -11.59,14.83 -27.99,26.06 -49.18,33.7 -21.26,7.63 -44.11,11.41 -68.65,11.41 -26.67,0 -50.44,-4.17 -71.36,-12.63 -21,-8.41 -36.87,-19.93 -47.66,-34.51 -10.79,-14.52 -16.2,-29.97 -16.2,-46.24zm38.58 0.39c0,22.33 9.14,39.89 27.44,52.75 18.37,12.85 41.35,19.28 68.98,19.28 28.17,0 51.34,-6.46 69.52,-19.45 18.15,-13 27.31,-31.4 27.31,-55.25 0,-15.06 -3.94,-28.22 -11.71,-39.49 -7.77,-11.24 -19.15,-19.96 -34.11,-26.19 -15.01,-6.16 -31.79,-9.27 -50.41,-9.27 -26.53,0 -49.31,5.95 -68.39,17.9 -19.09,11.91 -28.63,31.84 -28.63,59.72zm341.26 89.84l0 -185.26 37.39 0 0 185.26 -37.39 0zm127.13 0l108.61 -185.26 40.3 0 115.71 185.26 -42.64 0 -32.98 -56.11 -118.21 0 -31.01 56.11 -39.76 0zm81.56 -76.09l95.91 0 -29.56 -51.29c-8.95,-15.58 -15.67,-28.39 -20.01,-38.43 -3.62,11.91 -8.69,23.68 -15.28,35.42l-31.06 54.3zm267.41 76.09l0 -185.26 38.38 0 148.5 145.46 0 -145.46 35.87 0 0 185.26 -38.38 0 -148.5 -145.58 0 145.58 -35.87 0zm309.41 0l108.6 -185.26 40.28 0 115.72 185.26 -42.66 0 -32.98 -56.11 -118.21 0 -31.01 56.11 -39.75 0zm81.55 -76.09l95.91 0 -29.56 -51.29c-8.95,-15.58 -15.67,-28.39 -20.01,-38.43 -3.62,11.91 -8.69,23.68 -15.27,35.42l-31.07 54.3zm518.75 76.09l0 -185.26 106.1 0c21.59,0 38.91,1.89 51.94,5.61 13.1,3.74 23.29,9.52 30.67,17.34 7.37,7.77 11.13,15.9 11.13,24.44 0,7.9 -3.3,15.35 -9.87,22.35 -6.52,6.99 -16.46,12.63 -29.7,16.95 17.12,3.28 30.22,8.9 39.44,16.78 9.21,7.95 13.81,17.3 13.81,28.08 0,8.68 -2.83,16.76 -8.42,24.21 -5.6,7.46 -12.51,13.19 -20.74,17.25 -8.22,4.06 -18.56,7.07 -30.93,9.16 -12.39,2.06 -27.59,3.09 -45.63,3.09l-107.81 0zm37.46 -107.4l61.15 0c16.52,0 28.43,-0.75 35.68,-2.17 9.48,-1.84 16.65,-4.9 21.45,-9.22 4.81,-4.33 7.25,-9.7 7.25,-16.19 0,-6.14 -2.24,-11.56 -6.72,-16.22 -4.54,-4.71 -11,-7.89 -19.29,-9.61 -8.36,-1.72 -22.71,-2.58 -43.06,-2.58l-56.47 0 0 55.99zm0 85.53l70.36 0c12.11,0 20.61,-0.29 25.47,-0.87 8.63,-1.02 15.81,-2.7 21.59,-5.08 5.8,-2.32 10.53,-5.77 14.29,-10.26 3.69,-4.52 5.59,-9.7 5.59,-15.63 0,-6.9 -2.7,-12.89 -8.09,-18.02 -5.4,-5.09 -12.91,-8.68 -22.52,-10.74 -9.55,-2.04 -23.37,-3.06 -41.35,-3.06l-65.35 0 0 63.65zm283 21.87l0 -185.26 125.33 0c25.21,0 44.37,1.67 57.47,5 13.1,3.31 23.56,9.2 31.46,17.59 7.83,8.47 11.71,17.8 11.71,27.98 0,13.14 -6.44,24.19 -19.48,33.2 -12.97,9.01 -33.04,14.74 -60.16,17.22 9.93,3.09 17.44,6.16 22.58,9.22 10.92,6.56 21.26,14.81 31.07,24.63l49.17 50.43 -47.07 0 -37.39 -38.54c-10.93,-11.1 -19.94,-19.65 -27.06,-25.51 -7.04,-5.91 -13.36,-10.05 -18.96,-12.37 -5.59,-2.39 -11.26,-4.02 -17.04,-4.96 -4.28,-0.56 -11.19,-0.87 -20.87,-0.87l-43.38 0 0 82.26 -37.39 0zm37.39 -103.47l80.43 0c17.06,0 30.48,-1.17 40.09,-3.52 9.69,-2.31 16.99,-6.03 21.98,-11.13 5,-5.08 7.51,-10.61 7.51,-16.59 0,-8.77 -4.8,-15.98 -14.55,-21.62 -9.67,-5.65 -25,-8.47 -46,-8.47l-89.46 0 0 61.32zm271.04 103.47l108.6 -185.26 40.28 0 115.71 185.26 -42.64 0 -32.98 -56.11 -118.21 0 -31.01 56.11 -39.75 0zm81.55 -76.09l95.91 0 -29.56 -51.29c-8.95,-15.58 -15.67,-28.39 -20.01,-38.43 -3.62,11.91 -8.69,23.68 -15.28,35.42l-31.06 54.3zm255.1 16.56l35.28 -2.02c1.65,9.28 5.52,16.86 11.65,22.81 6.13,5.96 15.6,10.75 28.44,14.42 12.84,3.67 27.31,5.49 43.38,5.49 14.28,0 26.85,-1.4 37.78,-4.15 10.93,-2.81 19.09,-6.59 24.42,-11.44 5.33,-4.87 8.03,-10.14 8.03,-15.86 0,-5.82 -2.57,-10.88 -7.77,-15.22 -5.14,-4.37 -13.62,-7.99 -25.41,-10.92 -7.64,-1.93 -24.35,-4.96 -50.36,-9.06 -25.93,-4.09 -44.16,-7.93 -54.56,-11.56 -13.5,-4.62 -23.57,-10.4 -30.22,-17.25 -6.57,-6.87 -9.87,-14.55 -9.87,-23.09 0,-9.3 4.02,-18.07 12.11,-26.17 8.09,-8.15 19.95,-14.33 35.48,-18.56 15.59,-4.18 32.84,-6.29 51.86,-6.29 21,0 39.43,2.2 55.5,6.65 15.99,4.4 28.3,10.91 36.92,19.48 8.56,8.6 13.23,18.35 13.89,29.21l-35.87 1.78c-1.97,-11.69 -8.5,-20.57 -19.62,-26.52 -11.13,-6.02 -27.51,-8.99 -49.23,-8.99 -22.64,0 -39.1,2.72 -49.5,8.16 -10.33,5.45 -15.54,11.98 -15.54,19.64 0,6.69 3.69,12.17 11,16.42 7.24,4.32 26,8.72 56.41,13.2 30.41,4.52 51.28,8.45 62.6,11.83 16.46,5 28.63,11.3 36.47,18.89 7.83,7.63 11.71,16.44 11.71,26.35 0,9.88 -4.26,19.16 -12.89,27.86 -8.63,8.72 -21,15.51 -37.13,20.37 -16.13,4.84 -34.29,7.24 -54.43,7.24 -25.61,0 -47.06,-2.4 -64.31,-7.31 -17.31,-4.87 -30.87,-12.23 -40.75,-22.05 -9.8,-9.79 -15,-20.93 -15.46,-33.31zm319.59 -30.7c0,-30.78 12.58,-54.83 37.8,-72.21 25.21,-17.41 57.72,-26.12 97.62,-26.12 26.06,0 49.62,4.11 70.55,12.26 20.93,8.21 36.92,19.58 47.92,34.22 11,14.57 16.46,31.18 16.46,49.69 0,18.82 -5.73,35.63 -17.31,50.43 -11.58,14.83 -27.97,26.06 -49.17,33.7 -21.26,7.63 -44.11,11.41 -68.66,11.41 -26.65,0 -50.43,-4.17 -71.35,-12.63 -20.98,-8.41 -36.86,-19.93 -47.65,-34.51 -10.8,-14.52 -16.2,-29.97 -16.2,-46.24zm38.57 0.39c0,22.33 9.16,39.89 27.46,52.75 18.37,12.85 41.35,19.28 68.98,19.28 28.17,0 51.34,-6.46 69.51,-19.45 18.16,-13 27.31,-31.4 27.31,-55.25 0,-15.06 -3.96,-28.22 -11.72,-39.49 -7.76,-11.24 -19.14,-19.96 -34.09,-26.19 -15.01,-6.16 -31.79,-9.27 -50.41,-9.27 -26.54,0 -49.31,5.95 -68.4,17.9 -19.08,11.91 -28.64,31.84 -28.64,59.72zm415.65 89.84l-109.53 -185.26 40.54 0 73.46 134.59c5.93,10.79 10.87,20.92 14.81,30.33 4.41,-10.11 9.48,-20.21 15.28,-30.33l76.35 -134.59 38.18 0 -110.72 185.26 -38.37 0z"/>
 </g>
</svg>
